<svg xmlns:dc="http://purl.org/dc/elements/1.1/" xmlns:cc="http://creativecommons.org/ns#" xmlns:rdf="http://www.w3.org/1999/02/22-rdf-syntax-ns#" xmlns:svg="http://www.w3.org/2000/svg" xmlns="http://www.w3.org/2000/svg" viewBox="0 0 256 256" fill="none"><metadata><rdf:RDF><cc:Work><dc:format>image/svg+xml</dc:format><dc:type rdf:resource="http://purl.org/dc/dcmitype/StillImage"/><dc:title>Croodles - Doodle your face</dc:title><dc:creator><cc:Agent><dc:title>vijay verma</dc:title></cc:Agent></dc:creator><dc:source>https://www.figma.com/community/file/966199982810283152</dc:source><cc:license rdf:resource="https://creativecommons.org/licenses/by/4.0/"/></cc:Work><cc:License rdf:about="https://creativecommons.org/licenses/by/4.0/"><cc:permits rdf:resource="https://creativecommons.org/ns#Reproduction"/><cc:permits rdf:resource="https://creativecommons.org/ns#Distribution"/><cc:permits rdf:resource="https://creativecommons.org/ns#DerivativeWorks"/><cc:requires rdf:resource="https://creativecommons.org/ns#Notice"/><cc:requires rdf:resource="https://creativecommons.org/ns#Attribution"/></cc:License></rdf:RDF></metadata><mask id="avatarsRadiusMask"><rect width="256" height="256" rx="0" ry="0" x="0" y="0" fill="#fff"/></mask><g mask="url(#avatarsRadiusMask)"><g><g stroke="#000" stroke-width="3" stroke-linecap="round" stroke-linejoin="round"><path d="M174.753 105c11.376 21.844 19.288 64.991 13.488 72.291C174.969 194 108.979 199 85.851 184.156c-15.452-9.917-16.433-61.162-8.216-74.892M183.014 121.686c2.899-1.035 8.509-3.798 9.812 1.811 1.303 5.609 1.283 9.099 0 14.907-.699 3.164-2.337 4.11-4.304 4.11"/><path d="M72.163 124.338c-7.606-2.389-12.086 1.888-9.36 11.337 2.583 8.95 7.051 10.834 9.36 10.328"/></g><g transform="translate(112 122)"><path d="M24.26 5c-.79 5.338-1.113 16.334.387 22.334 3.517 14.067-1.546 17.47-3.286 17.47-5.263 0-6.502-4.699-7.71-17.991-1.5-16.5-1.542-16.351-3.651-20.974" stroke="#000" stroke-width="3" stroke-linecap="round" stroke-linejoin="round"/></g><g transform="translate(63 112)"/><g transform="translate(98 168)"><path d="M34.032 8.914C26.782 8.914 20.018 7.822 17 7c1.088 2.587 3.382 11.973 17.032 11.973S50.497 9.776 52.258 7c-5.897 1.823-10.976 1.914-18.226 1.914Z" stroke="#000" stroke-width="3" stroke-linecap="round" stroke-linejoin="round"/></g><g transform="translate(-3 -1)"><g stroke="rgba(151, 71, 255, 1)" stroke-width="3" stroke-linecap="round" stroke-linejoin="round"><path d="M129.821 67.09c-13.792 3.183-28.115 1.061-43.498 15.914M133.535 65.499c17.505-11.67 46.151 4.244 49.864 24.401M133.004 72.395c9.018 16.975 23.871 32.566 50.395 25.14"/><path d="M133.004 67.62c10.61 13.262 29.706 21.22 47.742 25.463M73.06 105.492c17.231 3.015 52.518-9.018 55.486-29.725M72 102.309c3.183-36.28 48.803-49.541 58.882-36.28"/><path d="M129.291 70.273c-9.293 8.574-24.402 16.975-47.212 22.28M115.499 84.065c-8.488 9.372-15.914 15.384-38.725 19.097M135.656 67.09c6.189-1.237 25.463 0 38.194 16.975"/></g></g><g transform="translate(68 149)"/><g transform="translate(71 103)"><g stroke-width="3" stroke-linecap="round" stroke-linejoin="round"><path d="M35.524 47.974c-.725-.535-5.135-2.321-7.438-6.16-2.303-3.837-2.456-7.675 0-9.364 1.65-1.134 5.147.682 7.438 2.233M36.423 34.017c1.491-1.646 4.12-3.032 6.709-1.567 1.737.983 1.535 7.062 0 9.365-1.233 1.849-5.195 4.94-6.709 5.928M77.688 33.251c-2.2-2.098-7.123-5.373-9.211-1.688-2.61 4.605 5.577 12.974 10.188 14.886M79.776 47.006c2.251-1.689 6.97-5.373 7.83-6.602 1.074-1.535 2.763-7.983 0-10.593-2.764-2.61-8.598 1.075-8.598 5.22" stroke="#F24E1E"/><path d="M26 18.272c.637-1.42 2.937-4.14 7.05-3.671 5.139.587 6.167 1.469 7.342 3.671M72.157 16.213c.588-1.664 3.055-4.817 8.224-4.112 5.17.705 7.05 3.623 7.343 4.993" stroke="#000"/></g></g></g></g></svg>