<svg width="349" height="266" viewBox="0 0 349 266" fill="none" xmlns="http://www.w3.org/2000/svg">
<path fill-rule="evenodd" clip-rule="evenodd" d="M37.3201 207.054C16.832 190.086 -11.1426 143.872 40.8635 94.7574C75.6582 61.8974 95.6507 69.4646 116.936 77.521C135.418 84.5165 154.874 91.8808 185.841 73.4668C252.473 33.8463 281.533 29.2313 309.846 69.9009C338.159 110.57 324.977 173.881 200.352 146.648C75.7272 119.415 87.8063 171.907 102.709 188.079C117.611 204.251 78.9737 245.203 37.3201 207.054ZM292.203 125.879C291.984 125.546 291.641 125.313 291.249 125.23C291.052 125.198 290.85 125.204 290.656 125.25C290.462 125.296 290.277 125.38 290.115 125.497C289.953 125.614 289.816 125.761 289.71 125.931C289.606 126.101 289.535 126.291 289.501 126.488C289.464 126.684 289.465 126.886 289.504 127.082C289.544 127.278 289.621 127.464 289.733 127.63C289.844 127.796 289.988 127.938 290.155 128.049C290.321 128.16 290.508 128.236 290.704 128.275C290.901 128.306 291.1 128.299 291.295 128.253C291.487 128.206 291.67 128.122 291.83 128.005C291.99 127.887 292.125 127.738 292.229 127.569C292.331 127.398 292.398 127.209 292.427 127.012C292.504 126.62 292.423 126.213 292.203 125.879ZM285.789 81.5032C285.625 81.3969 285.441 81.3244 285.249 81.2901C285.058 81.2589 284.862 81.2659 284.674 81.3103C284.486 81.355 284.308 81.436 284.151 81.5492C283.993 81.6624 283.861 81.8057 283.758 81.9701C283.657 82.1349 283.589 82.3181 283.557 82.5092C283.495 82.709 283.476 82.9199 283.5 83.1278C283.526 83.336 283.594 83.5363 283.701 83.7153C283.81 83.8946 283.956 84.0489 284.128 84.1671C284.301 84.286 284.497 84.3663 284.703 84.4032C284.909 84.4401 285.121 84.433 285.325 84.3816C285.529 84.3305 285.717 84.2362 285.882 84.1058C286.046 83.9756 286.18 83.8115 286.275 83.6249C286.372 83.4387 286.425 83.2338 286.436 83.0248C286.474 82.8328 286.473 82.6351 286.433 82.4436C286.394 82.252 286.316 82.07 286.206 81.9088C286.096 81.7472 285.955 81.6095 285.789 81.5032ZM228.384 138.578C228.472 138.73 228.608 138.847 228.773 138.909L228.765 138.956C228.963 138.992 229.169 138.947 229.333 138.831C229.499 138.716 229.612 138.54 229.648 138.341C229.684 138.142 229.639 137.937 229.523 137.772C229.41 137.606 229.231 137.493 229.033 137.458C228.857 137.458 228.689 137.52 228.554 137.633C228.419 137.745 228.33 137.902 228.299 138.075C228.268 138.248 228.297 138.425 228.384 138.578ZM237.714 71.4498C236.642 71.4051 234.178 71.4547 234.008 72.4062L233.999 72.4538C233.651 73.6045 234.614 74.8734 236.233 77.0068C236.58 77.4643 236.958 77.9615 237.359 78.5058C235.863 80.4711 234.726 82.6863 234.002 85.0487C233.644 87.6785 238.636 86.1942 241.711 85.28C241.97 85.2028 242.216 85.1297 242.444 85.0634C243.212 86.0116 243.83 86.938 244.376 87.7577C245.518 89.4701 246.349 90.7168 247.593 90.7238C248.503 90.7149 248.979 89.4255 249.137 88.5453C249.561 86.6306 249.844 84.6873 249.982 82.731C250.702 82.4987 251.397 82.2969 252.043 82.1095C253.196 81.7748 254.191 81.4863 254.88 81.1533C258.368 79.495 253.546 76.8143 250.029 75.2024C250.183 72.7446 249.911 70.2791 249.223 67.9139C248.869 67.2859 248.392 67.3476 247.82 67.6625C245.993 69.0209 244.349 70.6075 242.924 72.383C241.236 71.8448 239.484 71.531 237.714 71.4498ZM221.687 120.234C222.766 118.938 223.49 117.384 223.793 115.725L223.809 115.777C223.953 114.924 223.992 114.057 223.927 113.196L208.115 121.705C209.445 122.741 211.022 123.417 212.69 123.667C214.357 123.916 216.062 123.732 217.638 123.131C219.215 122.529 220.609 121.532 221.687 120.234ZM207.69 121.335C213.601 117.803 219.469 114.508 223.799 112.264L223.815 112.316C223.539 110.907 222.977 109.569 222.162 108.387C218.497 111.437 212.607 116.225 206.736 120.354C207.027 120.705 207.347 121.034 207.69 121.335ZM216.397 111.954C219.051 109.875 221.232 108.166 221.728 107.793L221.474 107.429L220.494 107.965C214.252 111.291 208.676 114.048 204.592 116.017C204.919 117.379 205.526 118.659 206.374 119.773C208.778 117.924 212.98 114.632 216.397 111.954ZM220.956 106.894C219.57 105.54 217.807 104.634 215.898 104.294L215.906 104.246C214.376 103.984 212.804 104.088 211.322 104.549C209.839 105.01 208.487 105.816 207.376 106.901C206.264 107.985 205.426 109.318 204.927 110.788C204.43 112.26 204.288 113.828 204.512 115.364C206.487 114.321 208.661 113.169 210.647 112.117C213.896 110.395 216.64 108.942 217.176 108.672L220.956 106.894ZM194.445 96.6532C194.229 96.4559 193.957 96.3278 193.666 96.2855L193.668 96.4087C193.306 96.3428 192.932 96.4175 192.622 96.6172C192.314 96.8174 192.091 97.1274 192.003 97.4851C191.951 97.774 191.988 98.0721 192.105 98.34C192.225 98.6092 192.421 98.8358 192.67 98.9919C192.918 99.1484 193.206 99.2269 193.501 99.2176C193.795 99.2082 194.078 99.1117 194.316 98.9395C194.555 98.7681 194.735 98.5289 194.838 98.2537C194.938 97.9779 194.955 97.6787 194.885 97.3935C194.816 97.1083 194.663 96.8507 194.445 96.6532ZM175.561 130.751C175.167 130.348 174.66 130.07 174.108 129.952C173.348 129.809 172.562 129.971 171.92 130.402C171.278 130.833 170.832 131.5 170.675 132.258C170.576 132.814 170.643 133.387 170.867 133.905C171.092 134.423 171.463 134.864 171.935 135.172C172.408 135.481 172.962 135.643 173.527 135.639C174.091 135.635 174.643 135.465 175.11 135.15C175.58 134.836 175.944 134.39 176.163 133.869C176.379 133.347 176.436 132.774 176.331 132.22C176.224 131.665 175.955 131.154 175.561 130.751ZM138.297 116.614C139.32 116.797 138.992 118.629 137.969 118.445C136.946 118.262 137.25 116.426 138.297 116.614ZM31.7977 151.803C31.9031 151.852 32.0181 151.878 32.1341 151.878C32.2438 151.919 32.3602 151.934 32.4767 151.924C32.5923 151.914 32.7048 151.879 32.8059 151.821C32.9068 151.763 32.9938 151.684 33.0609 151.589C33.1283 151.494 33.1733 151.385 33.1938 151.27C33.2143 151.155 33.21 151.038 33.1797 150.925C33.1499 150.813 33.0959 150.708 33.0212 150.619C32.9466 150.529 32.8533 150.457 32.7483 150.408C32.6425 150.358 32.5279 150.333 32.411 150.332C32.3021 150.292 32.1854 150.276 32.0693 150.286C31.9533 150.296 31.8407 150.331 31.7397 150.389C31.6388 150.447 31.5518 150.526 31.4848 150.622C31.4177 150.717 31.3723 150.826 31.3518 150.94C31.3313 151.055 31.3361 151.173 31.3659 151.285C31.3958 151.398 31.4498 151.502 31.5244 151.592C31.5989 151.681 31.6923 151.753 31.7977 151.803ZM101.554 96.7781C101.312 96.5518 101.009 96.4025 100.682 96.3489C100.25 96.2777 99.8077 96.3797 99.4499 96.6329C99.0922 96.8853 98.8481 97.2688 98.7708 97.7004C98.713 98.0257 98.7529 98.3614 98.8856 98.6646C99.0188 98.9675 99.2389 99.2238 99.5178 99.4014C99.7971 99.5787 100.123 99.6692 100.453 99.661C100.784 99.6528 101.105 99.5465 101.375 99.3556C101.645 99.1647 101.852 98.8974 101.97 98.5887C102.089 98.2795 102.111 97.9422 102.037 97.62C101.963 97.2974 101.795 97.0047 101.554 96.7781ZM86.4463 182.634C86.6083 182.462 86.7177 182.247 86.7614 182.016L86.6901 182.003C86.721 181.835 86.7166 181.663 86.677 181.497C86.638 181.332 86.5645 181.176 86.4622 181.04C86.3597 180.904 86.23 180.791 86.0817 180.707C85.9328 180.624 85.7689 180.572 85.5991 180.555C85.3633 180.546 85.1301 180.604 84.9265 180.724C84.7229 180.844 84.5581 181.019 84.4512 181.23C84.3447 181.44 84.301 181.677 84.3246 181.912C84.3485 182.147 84.4394 182.37 84.5862 182.554C84.7334 182.739 84.9305 182.877 85.1539 182.953C85.3773 183.03 85.6178 183.04 85.8467 182.983C86.0761 182.926 86.2839 182.805 86.4463 182.634ZM87.5279 140.319C87.7101 139.713 87.5123 139.31 87.0128 139.22C84.722 138.996 82.4096 139.137 80.1621 139.638C78.8367 137.882 77.128 136.451 75.1668 135.454C73.5879 135.094 73.5116 137.057 73.433 139.08C73.4106 139.656 73.3881 140.237 73.3305 140.771C73.1731 140.811 72.9776 140.858 72.7534 140.912C70.7067 141.403 66.2718 142.468 66.6747 143.802C66.9766 144.801 68.3004 145.289 70.1131 145.957C70.9834 146.278 71.9666 146.64 73.0034 147.12C72.9978 147.286 72.9912 147.46 72.9844 147.64C72.8802 150.391 72.7233 154.538 74.9837 153.883C76.8993 153.014 78.634 151.792 80.0969 150.281C80.547 150.465 80.9823 150.647 81.4003 150.822C85.3588 152.48 87.7586 153.484 86.3509 148.946C85.8831 147.521 85.2262 146.164 84.3972 144.914C85.6596 143.543 86.7144 141.995 87.5279 140.319ZM44.064 125.806C44.107 125.887 44.1758 125.952 44.2593 125.989C52.8712 128.759 65.2082 134.308 71.7442 140.855C71.9565 141.041 72.198 140.789 72.0332 140.612C66.0407 134.457 55.7825 129.502 47.8334 126.458C54.8456 127.468 61.4109 128.644 61.6725 128.691C61.7518 128.71 61.834 128.707 61.9109 128.681C61.9882 128.656 62.0564 128.609 62.1081 128.547C62.1602 128.485 62.1939 128.409 62.2051 128.329C62.2163 128.249 62.2055 128.167 62.1724 128.093C60.8791 125.308 53.1327 119.624 50.6315 117.826C52.8815 118.371 55.0611 119.173 57.1265 120.217C59.7877 121.5 62.2877 123.093 64.5743 124.964C64.936 125.274 65.4757 125.002 65.3536 124.588C64.8051 122.304 58.7909 115.31 57.3059 113.596C62.129 116.349 66.5243 119.791 70.3532 123.814C74.6559 128.306 78.1593 133.5 80.712 139.172C80.8164 139.412 81.0603 139.283 81.0987 139.069C78.5493 133.364 75.0438 128.136 70.733 123.612C66.3874 118.913 61.2832 114.978 55.633 111.971C55.5499 111.919 55.4504 111.898 55.3535 111.913C55.2563 111.928 55.168 111.977 55.1037 112.052C55.0403 112.127 55.005 112.222 55.0053 112.32C55.0055 112.418 55.0411 112.514 55.105 112.588C58.1197 115.975 60.933 119.537 63.5301 123.254C59.167 119.917 54.0846 117.645 48.6874 116.619C48.5835 116.583 48.4701 116.588 48.3701 116.633C48.2697 116.678 48.19 116.759 48.1469 116.86C48.1043 116.961 48.1009 117.075 48.1381 117.178C48.1759 117.281 48.2508 117.367 48.348 117.417C52.8546 120.37 57.0395 123.785 60.8354 127.608C55.626 126.675 49.6732 125.781 44.3999 125.204C44.3086 125.21 44.2217 125.247 44.1532 125.308C44.0852 125.369 44.0392 125.451 44.023 125.542C44.0068 125.632 44.0213 125.725 44.064 125.806Z" fill="#422B8C"/>
<path d="M113.609 235.719L113.62 235.676L113.628 235.633C114.42 231.027 119.201 207.814 125.732 180.443L125.846 179.965L125.538 179.583C113.932 165.206 106.331 148.015 103.509 129.755C98.5891 91.6975 126.022 62.192 160.121 51.1679C194.202 40.1495 234.513 47.7433 255.131 83.4954C264.078 99.2325 268.347 115.929 266.508 133.875C265.281 142.078 260.439 154.371 253.775 165.606C247.088 176.882 238.717 186.837 230.581 190.592C222.944 194.102 214.555 197.005 206.324 198.516C198.465 199.923 189.482 200.754 181.532 200.5L180.892 200.48L180.606 201.052C176.11 210.026 171.908 219.031 168.161 227.06C166.439 230.752 164.812 234.237 163.297 237.419C160.887 242.483 158.763 246.77 156.977 249.923C156.083 251.5 155.286 252.771 154.592 253.704C153.871 254.674 153.349 255.155 153.032 255.316C152.932 255.366 152.696 255.437 152.258 255.471C151.838 255.503 151.302 255.497 150.655 255.447C149.363 255.346 147.71 255.079 145.805 254.673C141.999 253.861 137.279 252.513 132.6 250.917C127.919 249.321 123.31 247.487 119.719 245.712C117.922 244.823 116.404 243.96 115.266 243.162C114.181 242.4 113.562 241.778 113.306 241.333C113.025 239.46 113.126 237.549 113.609 235.719Z" stroke="#190C3B" stroke-width="2"/>
<path d="M118.152 214.115L113.165 241.542C119.149 247.526 142.254 253.178 153.058 255.255C158.045 247.36 167.769 231.07 166.772 229.075C165.775 227.081 133.943 218.271 118.152 214.115Z" fill="#190C3B"/>
<path d="M150.189 238.444L150.167 238.44L150.145 238.437C141.912 237.384 133.941 234.793 126.635 230.794C126.277 230.596 125.95 230.416 125.651 230.252C124.765 229.766 124.128 229.416 123.672 229.135C124.371 229.293 125.395 229.584 126.947 230.025C127.352 230.14 127.792 230.265 128.272 230.401L128.406 230.439H128.457C128.48 230.445 128.511 230.452 128.551 230.463C128.678 230.497 128.861 230.549 129.097 230.619C129.568 230.758 130.223 230.96 131.015 231.21C132.597 231.708 134.709 232.39 136.946 233.121C141.395 234.576 146.32 236.222 148.545 237.009C149.606 237.497 150.473 237.891 151.184 238.214C151.722 238.458 152.171 238.662 152.546 238.835C151.937 238.744 151.165 238.613 150.189 238.444ZM128.398 230.426C128.398 230.426 128.402 230.427 128.413 230.429C128.404 230.427 128.398 230.426 128.398 230.426Z" stroke="white" stroke-width="2"/>
<path d="M184.136 157.669L183.985 157.623L183.828 157.61C179.515 157.256 175.298 156.169 171.358 154.401L170.888 154.19L170.388 154.312L164.096 155.85L161.872 156.393L154.347 156.514C154.017 156.499 153.687 156.58 153.396 156.756C153.083 156.945 152.892 157.195 152.783 157.376C152.578 157.713 152.492 158.081 152.449 158.305C152.369 158.715 152.328 159.232 152.296 159.645C152.291 159.711 152.286 159.775 152.281 159.836C152.257 160.124 152.235 160.351 152.211 160.526C152.136 160.576 152.068 160.627 152.032 160.659C151.911 160.771 151.835 160.879 151.811 160.914C151.778 160.961 151.751 161.007 151.729 161.044C151.746 160.955 151.762 160.867 151.778 160.779C151.986 159.58 152.083 158.308 151.811 157.274L151.584 156.413L150.72 156.199C147.046 155.291 143.708 153.33 141.122 150.546L141.121 150.546C138.269 147.476 136.479 143.57 136.024 139.406L136.021 139.384L136.018 139.362C135.966 138.985 135.923 138.607 135.891 138.228L135.887 138.18L135.88 138.133C135.868 138.049 135.857 137.968 135.847 137.889L135.846 137.875L135.844 137.86C135.566 135.875 135.738 133.749 136.317 131.672L136.328 131.631L136.337 131.59C137.303 127.182 139.537 123.286 142.539 120.823C145.503 118.391 149.23 117.332 153.422 118.522L153.444 118.529L153.466 118.534C155.311 118.997 156.984 119.982 158.277 121.371L158.279 121.373C159.568 122.752 160.434 124.472 160.775 126.327C161.048 128.662 160.937 131.024 160.443 133.32L160.44 133.333L160.438 133.347C159.616 137.551 156.438 147.988 154.44 153.895L153.672 156.165L156.05 155.864L163.754 154.888L163.875 154.872L163.992 154.838C164.916 154.564 165.828 154.241 166.722 153.871L168.934 152.955L167.145 151.364C165.633 150.019 164.564 148.245 164.086 146.282C163.621 142.528 164.242 138.719 165.872 135.306C167.518 131.868 170.118 128.979 173.366 126.985L173.388 126.971L173.41 126.957C174.834 126.012 176.556 125.62 178.252 125.855C179.932 126.087 181.47 126.919 182.584 128.196C184.103 130.221 184.959 132.665 185.04 135.198C185.118 137.73 184.416 140.223 183.027 142.339C180.46 145.685 177.423 148.643 174.018 151.125L173.109 151.787L173.49 152.845L173.762 153.601L174.089 154.508L174.376 155.305L175.206 155.471L185.796 157.589L185.677 157.831L185.549 158.093L184.656 157.825L184.136 157.669ZM213.016 144.003C213.222 144.546 213.324 144.908 213.356 145.091C213.321 147.047 212.943 148.75 212.159 150.207C211.367 151.678 210.116 152.984 208.204 154.06C204.403 156.199 198.035 157.404 187.829 157.023L187.919 156.821C189.507 153.263 192.723 147.273 196.296 142.596C198.09 140.248 199.903 138.327 201.575 137.189C203.274 136.033 204.465 135.91 205.329 136.342L205.383 136.368L205.439 136.391C205.479 136.407 205.52 136.424 205.564 136.441C206.26 136.722 207.333 137.154 208.348 137.649C208.887 137.912 209.38 138.178 209.776 138.433C210.202 138.707 210.396 138.895 210.451 138.968L210.454 138.971C210.798 139.427 211.508 140.681 212.176 142.075C212.5 142.753 212.796 143.426 213.016 144.003ZM169.371 188.59L178.384 172.567L177.903 173.538L167.322 193.569L169.371 188.59ZM152.137 160.885C152.136 160.884 152.139 160.878 152.144 160.866C152.139 160.879 152.137 160.885 152.137 160.885ZM152.864 160.31C152.868 160.309 152.872 160.308 152.875 160.308C153.123 160.246 153.341 160.273 153.49 160.318C153.317 160.286 153.079 160.289 152.864 160.31Z" stroke="#190C3B" stroke-width="3"/>
<path d="M244.94 263.914L244.918 263.913L244.896 263.912C240.026 263.782 235.227 262.746 230.752 260.861C227.988 259.154 225.703 255.147 226.031 250.623C226.352 246.213 229.216 241.016 237.414 237.26C246.126 233.279 256.015 232.531 265.247 235.157L268.098 235.968L267.783 233.02C267.518 230.544 267.868 228.041 268.806 225.725C269.744 223.41 271.242 221.349 273.174 219.722C275.107 218.094 277.416 216.95 279.903 216.391C282.382 215.833 284.963 215.873 287.422 216.507C290.281 217.33 292.844 218.921 294.824 221.094C296.809 223.274 298.13 225.953 298.639 228.826L299.617 234.338L302.353 229.454C303.205 227.934 304.4 226.622 305.85 225.62C307.301 224.618 308.967 223.953 310.724 223.679C312.48 223.404 314.276 223.527 315.976 224.038C317.675 224.549 319.23 225.434 320.524 226.622L320.535 226.632L320.545 226.641C322.466 228.355 323.919 230.509 324.778 232.906C325.637 235.302 325.875 237.87 325.473 240.378L324.743 244.923L328.563 242.355C333.092 239.311 339.486 240.302 343.559 243.36C345.561 244.863 346.738 246.678 346.96 248.425C347.17 250.069 346.587 252.089 344.136 254.241L344.13 254.247L344.124 254.252C342.767 255.463 340.655 256.53 338.071 257.427C335.52 258.313 332.666 258.982 329.959 259.479C327.258 259.974 324.742 260.291 322.88 260.484C321.265 260.651 320.209 260.719 319.946 260.736C319.898 260.739 319.877 260.74 319.883 260.74H319.828L319.773 260.743C310.399 261.261 301.011 261.538 291.594 261.816C287.461 261.938 283.322 262.06 279.176 262.202C269.881 262.522 263.808 263.019 259.036 263.409C258.68 263.438 258.331 263.466 257.989 263.494C253.07 263.894 249.549 264.14 244.94 263.914Z" stroke="#FFD1A9" stroke-width="4"/>
<path d="M144.688 35.9333C144.806 36.4432 144.776 36.9755 144.602 37.4657C144.474 37.982 144.194 38.4452 143.8 38.794C143.406 39.1427 142.916 39.3605 142.394 39.4185C141.873 39.4765 141.345 39.3719 140.88 39.1187C140.416 38.8654 140.037 38.4754 139.794 38.0004C139.571 37.7219 139.404 37.4021 139.302 37.0592C139.201 36.7163 139.166 36.3571 139.201 36.002C139.236 35.6469 139.34 35.3029 139.506 34.9896C139.672 34.6764 139.898 34.4 140.17 34.1763C140.442 33.9525 140.755 33.7859 141.092 33.6857C141.428 33.5856 141.782 33.554 142.132 33.5927C142.481 33.6314 142.821 33.7397 143.131 33.9114C143.441 34.083 143.715 34.3147 143.938 34.5932C144.31 34.9579 144.57 35.4234 144.688 35.9333Z" fill="#FFD1A9"/>
<path d="M158.058 32.6758C158.01 32.4954 158.004 32.3062 158.042 32.1239C158.349 29.4576 163.4 17.661 164.263 17.4654C164.326 17.4491 164.391 17.4462 164.454 17.457C164.518 17.4678 164.578 17.492 164.633 17.528C165.97 18.4233 167.239 19.4211 168.428 20.5126C169.34 21.4167 161.711 32.8633 160.989 33.918C160.917 34.0158 160.821 34.0927 160.711 34.1412C160.6 34.1897 160.479 34.2081 160.359 34.1947C159.595 34.0633 158.885 33.7037 158.32 33.1619C158.196 33.0229 158.106 32.8563 158.058 32.6758Z" fill="#FFD1A9"/>
</svg>
