<svg width="412" height="338" viewBox="0 0 412 338" fill="none" xmlns="http://www.w3.org/2000/svg">
<path fill-rule="evenodd" clip-rule="evenodd" d="M330.829 193.514C343.984 170.392 353.787 117.267 287.762 89.7424C243.588 71.3273 227.569 85.4818 210.515 100.551C195.706 113.636 180.116 127.411 144.635 121.152C68.2929 107.684 39.4814 113.655 27.3983 161.713C15.3152 209.772 50.0551 264.318 156.97 194.731C263.885 125.145 271.17 178.514 262.957 198.914C254.745 219.314 305.377 243.937 330.829 193.514ZM63.7148 207.822C63.8013 207.433 64.0393 207.093 64.3769 206.877C64.5496 206.777 64.7406 206.712 64.9387 206.686C65.1367 206.66 65.3392 206.673 65.5321 206.725C65.7251 206.777 65.9053 206.867 66.0648 206.988C66.2224 207.11 66.3559 207.262 66.4566 207.435C66.5609 207.605 66.6318 207.795 66.665 207.991C66.6963 208.189 66.6902 208.39 66.6448 208.585C66.5994 208.78 66.5146 208.964 66.3982 209.126C66.2818 209.288 66.1341 209.426 65.9647 209.531C65.7918 209.631 65.6025 209.694 65.4044 209.72C65.2078 209.745 65.0068 209.731 64.8158 209.678C64.6241 209.624 64.4452 209.533 64.2878 209.411C64.132 209.288 64.0025 209.134 63.9058 208.961C63.6952 208.621 63.6267 208.212 63.7148 207.822ZM54.004 164.049C54.1205 163.891 54.2664 163.758 54.4343 163.658C54.6018 163.562 54.787 163.499 54.9788 163.474C55.1703 163.449 55.3658 163.462 55.553 163.512C55.7401 163.562 55.9143 163.649 56.0689 163.767C56.222 163.885 56.3501 164.032 56.4477 164.2C56.5769 164.364 56.6695 164.555 56.7206 164.758C56.77 164.962 56.7767 165.173 56.7398 165.379C56.7014 165.585 56.6195 165.781 56.5012 165.952C56.3812 166.125 56.226 166.269 56.0466 166.377C55.8667 166.484 55.6659 166.553 55.4571 166.577C55.2489 166.601 55.0389 166.579 54.839 166.516C54.6388 166.452 54.4559 166.346 54.301 166.205C54.1446 166.065 54.0223 165.892 53.9384 165.701C53.8345 165.535 53.7656 165.349 53.7346 165.156C53.7036 164.963 53.7122 164.765 53.7579 164.576C53.8039 164.386 53.887 164.207 54.004 164.049ZM127.896 197.107C127.868 197.28 127.782 197.438 127.649 197.554L127.674 197.595C127.501 197.699 127.292 197.73 127.098 197.68C126.902 197.631 126.734 197.506 126.63 197.332C126.527 197.159 126.496 196.952 126.545 196.756C126.593 196.561 126.72 196.392 126.893 196.289C127.057 196.227 127.237 196.225 127.403 196.283C127.569 196.341 127.708 196.455 127.798 196.606C127.888 196.757 127.923 196.933 127.896 197.107ZM95.4074 137.628C96.3944 137.207 98.7163 136.381 99.2125 137.211L99.2374 137.252C99.9698 138.205 99.5185 139.733 98.7596 142.301C98.5969 142.852 98.4201 143.45 98.2377 144.101C100.332 145.41 102.18 147.079 103.693 149.032C104.959 151.365 99.7645 151.744 96.5656 151.978C96.2953 151.997 96.0393 152.016 95.8026 152.035C95.4201 153.193 95.1705 154.278 94.9497 155.238C94.4883 157.244 94.1524 158.704 92.9915 159.151C92.1373 159.465 91.2352 158.428 90.7762 157.66C89.7013 156.02 88.7488 154.303 87.9276 152.522C87.1721 152.559 86.4501 152.617 85.78 152.67C84.5826 152.765 83.5507 152.847 82.7882 152.78C78.9385 152.464 82.5 148.25 85.2183 145.497C84.2045 143.253 83.5862 140.851 83.3918 138.395C83.5005 137.683 83.969 137.571 84.6154 137.664C86.8046 138.287 88.9044 139.189 90.8657 140.345C92.2536 139.244 93.7811 138.331 95.4074 137.628ZM127.667 177.58C126.198 176.749 124.971 175.553 124.1 174.108L124.104 174.162C123.667 173.416 123.324 172.619 123.079 171.79L140.881 174.152C140.003 175.591 138.767 176.782 137.296 177.606C135.824 178.429 134.165 178.86 132.478 178.856C130.79 178.851 129.134 178.412 127.667 177.58ZM141.146 173.655C134.368 172.444 127.713 171.44 122.869 170.874L122.873 170.928C122.632 169.512 122.684 168.062 123.028 166.668C127.535 168.224 134.739 170.616 141.691 172.4C141.543 172.831 141.361 173.252 141.146 173.655ZM129.682 167.963C126.463 166.958 123.82 166.132 123.224 165.959L123.332 165.528L124.439 165.683C131.454 166.584 137.645 167.189 142.162 167.584C142.338 168.974 142.223 170.386 141.825 171.728C138.922 170.85 133.825 169.258 129.682 167.963ZM123.627 164.845C124.444 163.088 125.772 161.617 127.438 160.623L127.413 160.581C128.751 159.794 130.258 159.335 131.807 159.242C133.358 159.148 134.907 159.423 136.33 160.044C137.755 160.665 139.01 161.614 139.997 162.813C140.983 164.013 141.671 165.43 142.005 166.946C139.789 166.669 137.347 166.362 135.117 166.08C131.469 165.621 128.389 165.232 127.792 165.17L123.627 164.845ZM144.797 145.883C144.929 145.621 145.138 145.405 145.395 145.263L145.436 145.379C145.752 145.189 146.128 145.127 146.489 145.204C146.847 145.282 147.166 145.493 147.376 145.796C147.526 146.048 147.597 146.34 147.582 146.632C147.566 146.926 147.462 147.207 147.285 147.441C147.108 147.676 146.866 147.851 146.587 147.947C146.309 148.042 146.01 148.052 145.727 147.975C145.443 147.899 145.19 147.739 144.996 147.518C144.805 147.296 144.683 147.022 144.647 146.731C144.611 146.439 144.663 146.145 144.797 145.883ZM174.528 171.088C174.754 170.571 175.13 170.131 175.604 169.826C176.264 169.423 177.057 169.296 177.81 169.472C178.563 169.649 179.216 170.114 179.631 170.768C179.921 171.252 180.061 171.812 180.034 172.376C180.008 172.94 179.817 173.483 179.484 173.939C179.151 174.395 178.691 174.743 178.161 174.939C177.632 175.135 177.056 175.172 176.507 175.043C175.956 174.914 175.458 174.626 175.069 174.216C174.683 173.805 174.426 173.289 174.328 172.734C174.232 172.177 174.302 171.604 174.528 171.088ZM204.375 144.675C203.483 145.208 204.438 146.805 205.33 146.271C206.222 145.738 205.287 144.129 204.375 144.675ZM316.435 139.885C316.354 139.968 316.255 140.033 316.147 140.075C316.059 140.151 315.955 140.207 315.843 140.239C315.731 140.271 315.614 140.278 315.498 140.259C315.384 140.241 315.274 140.197 315.178 140.132C315.081 140.067 315 139.981 314.941 139.881C314.881 139.781 314.843 139.669 314.832 139.553C314.82 139.438 314.833 139.321 314.871 139.211C314.91 139.101 314.971 139 315.052 138.917C315.133 138.833 315.231 138.769 315.341 138.727C315.428 138.651 315.532 138.594 315.644 138.563C315.756 138.531 315.874 138.524 315.989 138.542C316.103 138.561 316.213 138.604 316.309 138.669C316.406 138.735 316.487 138.82 316.546 138.92C316.606 139.02 316.643 139.132 316.655 139.248C316.667 139.364 316.654 139.481 316.616 139.591C316.578 139.701 316.516 139.801 316.435 139.885ZM231.717 113.116C231.863 112.819 232.093 112.572 232.38 112.407C232.759 112.187 233.209 112.126 233.633 112.236C234.057 112.345 234.421 112.618 234.646 112.994C234.816 113.278 234.897 113.606 234.88 113.936C234.863 114.267 234.748 114.584 234.55 114.849C234.351 115.114 234.079 115.314 233.767 115.423C233.455 115.533 233.117 115.547 232.797 115.464C232.477 115.381 232.188 115.204 231.969 114.957C231.749 114.71 231.608 114.403 231.563 114.075C231.518 113.747 231.572 113.414 231.717 113.116ZM276.239 188.065C276.026 187.961 275.848 187.8 275.725 187.598L275.787 187.561C275.699 187.415 275.642 187.253 275.621 187.084C275.599 186.915 275.612 186.743 275.66 186.58C275.707 186.416 275.789 186.265 275.898 186.134C276.007 186.003 276.143 185.897 276.295 185.821C276.512 185.729 276.751 185.701 276.984 185.741C277.217 185.781 277.433 185.886 277.608 186.045C277.782 186.205 277.907 186.411 277.968 186.638C278.028 186.867 278.022 187.107 277.95 187.332C277.878 187.557 277.743 187.756 277.561 187.906C277.379 188.057 277.157 188.152 276.923 188.179C276.689 188.207 276.451 188.167 276.239 188.065ZM260.248 148.873C259.863 148.371 259.905 147.924 260.341 147.663C262.404 146.642 264.617 145.956 266.896 145.629C267.514 143.517 268.605 141.574 270.086 139.947C271.436 139.052 272.202 140.86 272.992 142.725C273.217 143.256 273.443 143.791 273.686 144.27C273.847 144.251 274.047 144.226 274.276 144.197C276.364 143.932 280.889 143.358 280.984 144.748C281.055 145.79 279.99 146.715 278.531 147.981C277.831 148.589 277.039 149.276 276.24 150.092C276.304 150.246 276.371 150.406 276.442 150.572C277.513 153.108 279.127 156.93 276.781 157.118C274.682 156.983 272.627 156.455 270.724 155.56C270.369 155.891 270.026 156.215 269.697 156.527C266.581 159.478 264.693 161.267 264.403 156.525C264.336 155.026 264.47 153.525 264.803 152.062C263.137 151.227 261.602 150.152 260.248 148.873ZM295.76 119.914C295.749 120.005 295.707 120.089 295.642 120.154C288.569 125.794 278.995 135.35 275.2 143.787C275.067 144.036 274.752 143.886 274.843 143.662C278.269 135.784 286.109 127.518 292.465 121.857C286.265 125.285 280.541 128.709 280.313 128.845C280.246 128.891 280.167 128.917 280.087 128.92C280.005 128.924 279.925 128.904 279.855 128.865C279.784 128.825 279.726 128.766 279.687 128.695C279.648 128.625 279.629 128.544 279.634 128.463C279.858 125.401 285.09 117.343 286.793 114.775C284.881 116.081 283.127 117.603 281.565 119.311C279.53 121.453 277.756 123.828 276.28 126.386C276.051 126.805 275.45 126.742 275.418 126.311C275.122 123.981 278.271 115.311 279.053 113.182C275.517 117.464 272.625 122.239 270.468 127.357C268.034 133.081 266.596 139.179 266.217 145.387C266.204 145.648 265.93 145.615 265.819 145.428C266.183 139.19 267.611 133.06 270.041 127.302C272.442 121.37 275.823 115.882 280.043 111.07C280.102 110.992 280.188 110.937 280.284 110.917C280.38 110.896 280.48 110.911 280.566 110.958C280.652 111.006 280.719 111.082 280.753 111.174C280.788 111.266 280.788 111.368 280.755 111.46C279.135 115.695 277.764 120.023 276.651 124.418C279.55 119.752 283.499 115.828 288.184 112.958C288.268 112.888 288.376 112.852 288.486 112.859C288.595 112.865 288.699 112.913 288.775 112.992C288.85 113.072 288.894 113.177 288.896 113.287C288.897 113.397 288.857 113.503 288.784 113.584C285.614 117.941 282.909 122.617 280.713 127.536C285.254 124.819 290.505 121.876 295.233 119.47C295.32 119.443 295.415 119.447 295.5 119.479C295.586 119.512 295.658 119.573 295.705 119.652C295.752 119.731 295.771 119.823 295.76 119.914Z" fill="#422B8C"/>
<path d="M300.656 326.81C300.277 326.845 299.738 326.883 299.029 326.921C297.283 327.016 294.681 327.106 291.328 327.191C284.628 327.36 275.016 327.506 263.45 327.633C240.323 327.886 209.427 328.059 178.5 328.177C147.575 328.294 116.624 328.356 93.3879 328.387C81.7699 328.403 72.0809 328.411 65.2884 328.414C61.8922 328.415 59.2203 328.416 57.3937 328.415C56.4803 328.415 55.7788 328.414 55.304 328.414C55.0664 328.414 54.8866 328.413 54.7658 328.413L54.7017 328.413L54.6928 328.412H54.5673C49.276 328.412 47.5138 328.408 46.5906 328.316C46.247 328.282 46.0808 328.241 45.7789 328.152C45.7114 328.131 45.6364 328.109 45.553 328.083C45.2691 327.997 44.8873 327.88 44.3678 327.743C44.354 327.612 44.3417 327.481 44.3309 327.35L45.3635 327.335L53.5978 327.223L83.001 326.819C107.342 326.485 139.814 326.039 172.339 325.592C230.783 324.788 289.455 323.978 301.36 323.802C301.494 325.229 301.257 326.141 300.656 326.81ZM43.4207 327.512C43.4137 327.51 43.4163 327.511 43.4268 327.514C43.4242 327.513 43.4222 327.513 43.4207 327.512ZM295.973 309.959C297.324 313.035 298.442 315.599 299.242 317.461C284.522 317.66 228.444 318.429 172.402 319.22C139.804 319.681 107.204 320.15 82.7313 320.52C70.4954 320.705 60.2899 320.865 53.1323 320.987C49.9682 321.041 47.3974 321.088 45.5093 321.126C46.608 318.528 48.2552 315.084 50.291 311.072C53.3406 305.063 57.1577 297.979 61.027 290.97C67.7945 278.712 74.6908 266.738 77.8632 261.229C78.0345 260.932 78.195 260.653 78.3439 260.394C111.541 261.276 192.091 259.156 239.413 257.91C255.036 257.499 267.037 257.183 272.518 257.102C273.749 259.896 276.334 265.704 279.458 272.723C281.651 277.65 284.11 283.175 286.553 288.674C289.972 296.369 293.366 304.026 295.973 309.959Z" stroke="#190C3B" stroke-width="5"/>
<path d="M70.9352 288.385C253.838 291.023 271.298 289.414 276.42 288.596C277.636 288.411 278.412 287.989 278.36 286.538C278.36 282.712 269.565 265.166 267.237 263.952C266.203 263.398 80.9973 266.063 80.3506 266.274C80.2302 266.303 80.1174 266.36 80.0191 266.437C79.9212 266.514 79.8399 266.611 79.7816 266.723C78.0226 269.652 69.4349 284.11 69.8229 287.382C69.8648 287.655 69.9993 287.905 70.202 288.088C70.4052 288.271 70.6643 288.376 70.9352 288.385ZM81.1008 268.095C82.9632 267.857 265.168 266.01 266.28 266.116C268.212 268.95 269.941 271.921 271.454 275.008C267.211 275.008 77.6088 276.037 76.6258 276.063C77.764 273.741 79.2642 271.103 81.1008 268.095ZM75.9274 277.33C76.9362 277.33 268.789 276.327 272.074 276.248C273.777 279.48 275.122 282.897 276.084 286.432C266.875 287.936 182.964 287.197 71.8664 286.432C72.9043 283.235 74.247 280.153 75.8757 277.224L75.9274 277.33Z" fill="#190C3B"/>
<path d="M59.2061 312.343C262.517 314.962 281.926 313.365 287.619 312.553C288.97 312.37 289.833 311.951 289.775 310.511C289.775 306.715 279.999 289.304 277.411 288.1C276.261 287.55 70.3909 290.194 69.6721 290.404C69.5383 290.432 69.4128 290.489 69.3035 290.565C69.1948 290.642 69.1044 290.737 69.0395 290.849C67.0843 293.755 57.5384 308.102 57.9697 311.349C58.0163 311.619 58.1658 311.868 58.3911 312.049C58.6169 312.23 58.905 312.335 59.2061 312.343ZM70.5059 292.21C72.5761 291.975 275.111 290.142 276.347 290.247C278.495 293.059 280.416 296.006 282.098 299.07C277.383 299.07 66.6243 300.091 65.5317 300.117C66.7968 297.813 68.4645 295.195 70.5059 292.21ZM64.7554 301.374C65.8767 301.374 279.137 300.379 282.788 300.3C284.681 303.508 286.176 306.898 287.245 310.406C277.009 311.898 183.735 311.165 60.2412 310.406C61.395 307.234 62.8875 304.175 64.6979 301.269L64.7554 301.374Z" fill="#190C3B"/>
<path d="M80.9331 259.706L80.9331 248.583M80.9331 233.289C79.5428 238.851 80.9331 248.583 80.9331 248.583M80.9331 248.583C126.164 249.294 233.207 246.231 242.213 247.193" stroke="#190C3B" stroke-width="5" stroke-linejoin="round"/>
<path d="M263.069 259.706C263.069 259.706 264.459 249.973 263.069 246.497M263.069 233.289C265.036 240.789 263.512 241.867 263.069 246.497M263.069 246.497C258.47 247.754 254.727 248.583 242.214 247.193" stroke="#190C3B" stroke-width="5" stroke-linejoin="round"/>
<path d="M109.857 247.896C109.856 247.893 109.855 247.89 109.855 247.887C109.935 247.825 110.028 247.763 110.134 247.707C110.041 247.766 109.944 247.831 109.857 247.896ZM112.558 248.191C112.557 248.192 112.551 248.182 112.54 248.159C112.552 248.179 112.558 248.19 112.558 248.191ZM112.275 247.264C112.05 246.336 111.754 244.795 111.413 242.626C110.947 239.663 110.433 235.787 109.909 231.303C108.862 222.34 107.783 211.015 106.977 199.838C106.171 188.651 105.641 177.663 105.681 169.353C105.701 165.185 105.865 161.775 106.189 159.378C106.353 158.166 106.543 157.329 106.726 156.818C106.727 156.815 106.728 156.812 106.729 156.809C107.087 156.727 107.636 156.621 108.415 156.499C109.666 156.302 111.32 156.093 113.333 155.878C117.354 155.446 122.72 154.997 128.985 154.569C141.511 153.714 157.562 152.95 173.501 152.589C189.451 152.227 205.233 152.27 217.241 153.021C223.259 153.398 228.239 153.947 231.791 154.686C233.577 155.058 234.89 155.455 235.76 155.849C236.185 156.04 236.41 156.189 236.519 156.27C236.547 156.463 236.578 156.734 236.609 157.09C236.676 157.853 236.734 158.9 236.782 160.21C236.877 162.823 236.927 166.378 236.932 170.576C236.943 178.967 236.774 189.854 236.435 200.765C236.097 211.68 235.589 222.588 234.926 231.028C234.594 235.255 234.225 238.82 233.827 241.444C233.627 242.761 233.427 243.788 233.234 244.521C233.205 244.63 233.177 244.729 233.151 244.818C232.043 245.112 230.919 245.247 229.796 245.225L229.686 245.223L229.576 245.23C225.581 245.503 196.203 245.948 167.616 246.364C165.086 246.401 162.563 246.437 160.066 246.474C148.497 246.642 137.486 246.801 128.873 246.939C123.638 247.023 119.285 247.099 116.228 247.163C114.7 247.195 113.489 247.225 112.651 247.252C112.517 247.256 112.392 247.26 112.275 247.264Z" stroke="#190C3B" stroke-width="5"/>
<path d="M60.533 77.1634L60.533 77.1634L60.5324 77.1543C60.3572 74.5379 60.9 71.9864 61.9768 70.1811C63.01 68.4491 64.4405 67.5014 66.3113 67.5C73.1438 67.5254 76.8634 70.2664 78.4588 73.2421C80.1044 76.3114 79.7697 80.0764 77.6649 82.8294C75.5868 85.4668 71.3814 87.0206 67.5957 86.3419C65.7691 86.0145 64.1379 85.1816 62.9139 83.7907C61.6944 82.405 60.7314 80.2969 60.533 77.1634Z" stroke="#FFD1A9" stroke-width="5"/>
<path d="M353.219 58.9311L353.221 58.9312C363.21 59.1134 373.257 58.9312 383.213 58.4151L383.213 58.4145C383.956 58.3821 388.188 58.0984 392.897 57.027C395.426 56.4513 398.169 55.6318 400.615 54.4609C403.036 53.3021 405.348 51.7135 406.79 49.5023C408.957 46.1844 409.511 42.8625 408.54 39.8754C407.587 36.9458 405.284 34.6994 402.455 33.2171C397.542 30.6432 390.557 30.0903 384.008 32.4217C383.825 30.8027 383.41 29.2139 382.771 27.7074C381.721 25.2347 380.098 23.0554 378.038 21.3604L378.005 21.333L377.97 21.3071C374.577 18.752 370.323 17.6757 366.145 18.3262C363.039 18.8097 360.175 20.2161 357.885 22.3285C352.379 12.1815 340.753 7.17084 329.645 7.00434C317.562 6.82323 305.118 12.3856 301.215 24.448C300.289 27.1439 299.936 30.0096 300.178 32.8546C300.337 34.7261 300.751 36.5614 301.405 38.3082C297.441 38.9372 293.652 40.4603 290.318 42.779L290.093 42.9354L289.919 43.1466C288.71 44.6084 288.037 46.4451 288.001 48.3459C287.966 50.2467 288.572 52.1074 289.724 53.614L289.724 53.614L289.732 53.6238C290.326 54.3902 291.077 55.0202 291.936 55.4678C292.796 55.9154 293.742 56.1693 294.71 56.21L294.752 56.2118H294.794C294.773 56.2118 295.02 56.2246 295.543 56.2517C295.856 56.2679 296.268 56.2892 296.782 56.316C297.187 56.3372 297.647 56.3613 298.156 56.3879C299.285 56.447 300.657 56.5187 302.219 56.6001C306.754 56.8362 312.901 57.1536 319.424 57.4785C332.453 58.1276 347.031 58.8095 353.219 58.9311Z" stroke="#FFD1A9" stroke-width="4"/>
</svg>
