<svg width="332" height="363" viewBox="0 0 332 363" fill="none" xmlns="http://www.w3.org/2000/svg">
<path fill-rule="evenodd" clip-rule="evenodd" d="M306.627 242.039C304.809 268.579 283.615 318.27 213.379 304.713C166.388 295.643 160.862 274.993 154.979 253.008C149.87 233.918 144.492 213.822 111.465 199.427C40.4 168.453 19.69 147.552 36.1844 100.823C52.6788 54.0941 111.779 27.8405 162.414 144.926C213.049 262.012 248.619 221.564 253.051 200.024C257.483 178.484 313.288 185.95 306.627 242.039ZM91.9343 82.4719C91.7916 82.8436 91.802 83.2584 91.9637 83.6252C92.0526 83.8039 92.1757 83.9637 92.3265 84.0947C92.4773 84.2257 92.653 84.3272 92.8425 84.3904C93.032 84.4537 93.2319 84.4785 93.4317 84.4657C93.6307 84.4509 93.826 84.3979 94.0054 84.3097C94.1863 84.2256 94.3501 84.1069 94.4865 83.9613C94.622 83.8137 94.7281 83.6426 94.7979 83.4554C94.8676 83.2681 94.8988 83.0676 94.8915 82.868C94.8842 82.6684 94.8372 82.4722 94.7543 82.2907C94.665 82.1123 94.5424 81.9547 94.3916 81.8237C94.2416 81.6943 94.0661 81.5952 93.8775 81.5339C93.6884 81.4724 93.4889 81.4494 93.2903 81.464C93.0923 81.4808 92.8996 81.5369 92.7231 81.6282C92.3597 81.7951 92.0765 82.0981 91.9343 82.4719ZM59.6468 113.583C59.6568 113.779 59.7049 113.97 59.7895 114.146C59.8756 114.319 59.9953 114.474 60.1413 114.601C60.2873 114.727 60.4571 114.825 60.6408 114.886C60.8246 114.948 61.0179 114.972 61.2116 114.959C61.4046 114.945 61.5928 114.893 61.7667 114.808C61.9653 114.742 62.1478 114.634 62.3026 114.494C62.4564 114.351 62.579 114.178 62.6618 113.987C62.7438 113.794 62.7838 113.585 62.7798 113.377C62.7753 113.167 62.7258 112.961 62.6356 112.772C62.5452 112.583 62.4157 112.415 62.2549 112.279C62.0948 112.144 61.908 112.046 61.7062 111.989C61.5042 111.931 61.2931 111.918 61.0862 111.95C60.8785 111.98 60.6811 112.057 60.5052 112.17C60.3269 112.251 60.1671 112.367 60.0345 112.511C59.9019 112.655 59.7997 112.824 59.733 113.008C59.6662 113.192 59.6366 113.386 59.6468 113.583ZM139.497 126.877C139.57 126.717 139.585 126.538 139.539 126.368L139.583 126.347C139.496 126.165 139.339 126.024 139.149 125.958C138.959 125.891 138.75 125.902 138.567 125.989C138.385 126.076 138.245 126.232 138.178 126.422C138.11 126.611 138.122 126.822 138.209 127.004C138.312 127.146 138.461 127.247 138.631 127.291C138.801 127.334 138.981 127.316 139.139 127.24C139.297 127.164 139.424 127.036 139.497 126.877ZM79.547 158.486C80.1365 159.382 81.6151 161.354 82.4871 160.937L82.5307 160.916C83.6679 160.527 84.1362 159.004 84.9234 156.444C85.0922 155.896 85.2757 155.299 85.4836 154.656C87.9524 154.723 90.4148 154.353 92.7556 153.562C95.0998 152.318 90.9804 149.13 88.4435 147.168C88.2292 147.002 88.0262 146.845 87.8393 146.698C88.1609 145.521 88.5526 144.479 88.8992 143.557C89.6233 141.631 90.1505 140.228 89.4301 139.214C88.8917 138.481 87.5666 138.846 86.7599 139.232C84.9574 140.005 83.2144 140.91 81.5457 141.94C80.9369 141.491 80.367 141.044 79.838 140.629C78.8928 139.888 78.0783 139.249 77.4056 138.884C74.0227 137.019 74.6613 142.5 75.4052 146.296C73.3199 147.606 71.4769 149.266 69.9577 151.205C69.6544 151.859 69.9833 152.211 70.5728 152.491C72.742 153.181 74.9903 153.591 77.2637 153.711C77.8119 155.396 78.5798 157.002 79.547 158.486ZM128.513 143.022C126.83 142.903 125.146 143.222 123.622 143.944L123.655 143.902C122.878 144.282 122.152 144.757 121.49 145.312L137.63 153.184C137.695 151.499 137.323 149.824 136.552 148.324C135.781 146.824 134.636 145.548 133.228 144.619C131.819 143.69 130.196 143.14 128.513 143.022ZM137.577 153.745C131.259 151.007 125.158 148.165 120.809 145.959L120.842 145.917C119.858 146.963 119.1 148.2 118.616 149.553C123.232 150.747 130.558 152.735 137.337 155.092C137.453 154.65 137.533 154.199 137.577 153.745ZM124.878 152.151C121.64 151.21 118.98 150.436 118.388 150.251L118.24 150.67L119.247 151.153C125.591 154.28 131.085 157.197 135.068 159.364C135.983 158.304 136.667 157.064 137.077 155.725C134.173 154.852 129.046 153.362 124.878 152.151ZM118.108 151.403C117.817 153.318 118.111 155.279 118.95 157.027L118.906 157.048C119.586 158.444 120.588 159.66 121.827 160.594C123.068 161.529 124.511 162.156 126.041 162.425C127.571 162.695 129.141 162.598 130.627 162.144C132.112 161.689 133.468 160.888 134.584 159.81C132.585 158.815 130.38 157.722 128.366 156.724C125.072 155.091 122.29 153.712 121.758 153.434L118.108 151.403ZM125.268 178.906C125.234 179.197 125.289 179.492 125.425 179.753L125.523 179.68C125.681 180.012 125.96 180.272 126.303 180.407C126.645 180.54 127.027 180.541 127.369 180.404C127.634 180.277 127.855 180.073 128.004 179.821C128.152 179.567 128.222 179.275 128.204 178.983C128.186 178.69 128.081 178.41 127.902 178.176C127.722 177.943 127.478 177.769 127.2 177.677C126.921 177.582 126.622 177.576 126.339 177.653C126.056 177.733 125.803 177.894 125.612 178.117C125.421 178.34 125.301 178.614 125.268 178.906ZM163.977 174.335C163.88 174.891 163.95 175.465 164.176 175.981C164.504 176.682 165.094 177.226 165.819 177.495C166.544 177.764 167.346 177.738 168.053 177.422C168.562 177.179 168.988 176.79 169.278 176.305C169.567 175.821 169.708 175.262 169.683 174.698C169.658 174.134 169.466 173.59 169.133 173.133C168.801 172.678 168.341 172.329 167.812 172.133C167.282 171.935 166.708 171.9 166.157 172.027C165.608 172.156 165.108 172.444 164.72 172.853C164.332 173.263 164.074 173.78 163.977 174.335ZM174.25 212.844C173.802 211.906 175.481 211.104 175.929 212.041C176.377 212.979 174.709 213.803 174.25 212.844ZM264.989 278.775C264.967 278.661 264.921 278.552 264.854 278.458C264.822 278.345 264.767 278.242 264.691 278.153C264.616 278.065 264.521 277.994 264.415 277.946C264.309 277.898 264.194 277.873 264.078 277.874C263.961 277.875 263.846 277.902 263.741 277.952C263.636 278.003 263.543 278.075 263.469 278.165C263.396 278.255 263.342 278.36 263.313 278.473C263.284 278.585 263.28 278.704 263.301 278.818C263.323 278.932 263.369 279.04 263.437 279.136C263.468 279.247 263.523 279.351 263.599 279.44C263.674 279.528 263.769 279.599 263.875 279.647C263.981 279.696 264.096 279.72 264.212 279.719C264.329 279.718 264.444 279.691 264.549 279.641C264.654 279.59 264.747 279.518 264.82 279.428C264.894 279.338 264.948 279.233 264.977 279.12C265.006 279.007 265.01 278.89 264.989 278.775ZM179.593 254.256C179.55 254.585 179.606 254.918 179.753 255.214C179.947 255.606 180.289 255.906 180.703 256.049C181.117 256.192 181.571 256.167 181.966 255.977C182.264 255.834 182.513 255.606 182.682 255.321C182.85 255.036 182.93 254.708 182.911 254.378C182.892 254.048 182.776 253.73 182.576 253.467C182.376 253.203 182.103 253.005 181.79 252.897C181.477 252.789 181.139 252.777 180.82 252.861C180.5 252.946 180.213 253.124 179.994 253.372C179.776 253.621 179.636 253.928 179.593 254.256ZM258.122 216.406C257.888 216.375 257.65 216.411 257.436 216.511L257.467 216.577C257.313 216.649 257.176 216.754 257.065 216.882C256.953 217.011 256.869 217.161 256.819 217.324C256.768 217.486 256.752 217.658 256.77 217.827C256.79 217.997 256.843 218.16 256.929 218.307C257.059 218.504 257.243 218.66 257.459 218.755C257.675 218.85 257.913 218.882 258.146 218.846C258.38 218.809 258.598 218.707 258.774 218.551C258.951 218.394 259.079 218.19 259.143 217.963C259.208 217.736 259.204 217.495 259.136 217.269C259.067 217.043 258.936 216.842 258.755 216.689C258.576 216.536 258.356 216.438 258.122 216.406ZM223.133 240.228C222.535 240.434 222.323 240.83 222.542 241.288C223.697 243.279 225.161 245.074 226.88 246.607C226.228 248.708 226.063 250.93 226.398 253.105C227.028 254.597 228.666 253.513 230.355 252.396C230.836 252.078 231.321 251.757 231.788 251.492C231.912 251.597 232.064 251.728 232.239 251.879C233.832 253.253 237.286 256.233 238.134 255.127C238.769 254.299 238.392 252.939 237.876 251.077C237.629 250.183 237.349 249.174 237.134 248.051C237.272 247.959 237.417 247.863 237.567 247.763C239.862 246.242 243.32 243.949 241.469 242.496C239.645 241.448 237.64 240.753 235.56 240.447C235.446 239.974 235.34 239.514 235.238 239.073C234.273 234.891 233.688 232.356 230.825 236.148C229.941 237.36 229.223 238.685 228.692 240.088C226.841 239.863 224.969 239.911 223.133 240.228ZM236.721 283.991C236.762 283.908 236.773 283.815 236.755 283.725C233.977 275.116 231.281 261.86 232.782 252.731C232.809 252.45 232.464 252.401 232.416 252.638C230.916 261.097 232.881 272.318 235.049 280.55C231.777 274.266 228.899 268.249 228.784 268.009C228.753 267.934 228.703 267.869 228.637 267.822C228.571 267.774 228.494 267.746 228.413 267.74C228.332 267.733 228.251 267.75 228.18 267.788C228.108 267.826 228.048 267.882 228.007 267.952C226.501 270.628 226.408 280.236 226.408 283.316C225.536 281.171 224.916 278.933 224.558 276.647C224.046 273.737 223.88 270.777 224.064 267.829C224.105 267.354 223.569 267.075 223.304 267.416C221.77 269.194 219.602 278.16 219.077 280.366C218.497 274.843 218.726 269.265 219.757 263.808C220.893 257.692 223.065 251.816 226.18 246.432C226.314 246.208 226.068 246.084 225.871 246.178C222.727 251.579 220.529 257.476 219.371 263.618C218.093 269.889 217.877 276.33 218.734 282.673C218.74 282.771 218.781 282.864 218.85 282.934C218.919 283.004 219.011 283.047 219.109 283.055C219.207 283.063 219.304 283.036 219.384 282.979C219.464 282.921 219.52 282.837 219.543 282.742C220.534 278.316 221.784 273.953 223.286 269.674C223.123 275.165 224.245 280.618 226.562 285.6C226.594 285.705 226.664 285.794 226.759 285.849C226.854 285.904 226.966 285.921 227.074 285.897C227.18 285.873 227.275 285.81 227.337 285.719C227.399 285.628 227.424 285.517 227.408 285.409C227.175 280.026 227.506 274.635 228.394 269.321C230.677 274.096 233.426 279.451 236.036 284.069C236.094 284.14 236.174 284.189 236.264 284.209C236.353 284.229 236.447 284.218 236.53 284.178C236.613 284.139 236.68 284.072 236.721 283.991Z" fill="#422B8C"/>
<path d="M324.859 148.581L324.804 148.537L324.739 148.51C321.178 147.056 317.447 146.068 313.633 145.571C311.146 145.177 308.265 144.783 305.717 144.451C306.915 142.82 308.761 140.474 310.629 138.098C310.951 137.689 311.273 137.279 311.593 136.872C312.816 135.315 314.001 133.798 314.962 132.527C315.914 131.267 316.668 130.22 317.016 129.611C317.336 129.067 317.149 128.482 316.93 128.076C316.703 127.655 316.36 127.268 316.087 126.995C314.542 125.347 312.311 124.24 309.961 123.461C307.602 122.679 305.074 122.212 302.899 121.874C301.64 121.67 298.41 121.249 295.272 120.984C293.703 120.851 292.146 120.756 290.867 120.748C290.228 120.744 289.648 120.762 289.167 120.809C288.701 120.854 288.271 120.932 287.967 121.077L288.181 121.526L287.967 121.077C287.751 121.179 287.513 121.386 287.281 121.615C287.035 121.858 286.748 122.177 286.427 122.556C285.785 123.315 284.99 124.341 284.1 125.546C282.32 127.959 280.143 131.115 278.02 134.348C275.897 137.581 273.823 140.898 272.249 143.634C271.462 145.002 270.797 146.23 270.312 147.233C269.838 148.213 269.505 149.042 269.434 149.58L269.43 149.613V149.645C269.43 149.997 269.487 150.336 269.707 150.624C269.92 150.901 270.228 151.055 270.546 151.173L270.547 151.174C271.21 151.417 272.411 151.682 273.835 151.95C275.274 152.221 276.982 152.501 278.685 152.772C279.496 152.9 280.304 153.026 281.081 153.147C283.106 153.463 284.922 153.745 286.036 153.959C284.145 157.088 279.891 163.075 275.819 168.76C275.342 169.426 274.867 170.088 274.4 170.74C272.744 173.05 271.174 175.239 269.88 177.074C268.231 179.409 266.998 181.213 266.612 181.952L266.612 181.952L266.609 181.959C266.401 182.375 266.317 182.794 266.43 183.171C266.547 183.561 266.843 183.803 267.171 183.914C268.698 184.519 270.269 185.008 271.871 185.373C272.155 185.453 272.457 185.406 272.724 185.329C273.007 185.247 273.322 185.108 273.658 184.938C274.291 184.616 275.07 184.142 275.961 183.599L276.12 183.502C276.12 183.502 276.121 183.502 276.121 183.501C280.47 180.889 291.949 173.438 302.691 166.248C308.064 162.651 313.258 159.117 317.288 156.282C319.303 154.865 321.03 153.62 322.344 152.63C323.627 151.662 324.557 150.907 324.96 150.465C325.086 150.342 325.181 150.198 325.245 150.045L325.245 150.045L325.25 150.034C325.315 149.87 325.346 149.693 325.336 149.512C325.33 149.322 325.277 149.146 325.2 148.996C325.117 148.832 325 148.691 324.859 148.581ZM313.997 147.936C315.391 148.171 316.595 148.4 317.471 148.609C314.869 150.626 309.176 154.561 303.401 158.473C296.987 162.818 290.51 167.111 288.159 168.656L287.934 168.804V168.872C280.918 173.5 276.213 176.5 273.236 178.36C272.276 178.96 271.495 179.441 270.875 179.821C271.825 178.461 273.13 176.62 274.609 174.534C275.984 172.597 277.508 170.447 279.038 168.273C283.197 162.365 287.412 156.259 288.658 153.877L288.664 153.866L288.67 153.854C288.74 153.701 288.78 153.532 288.78 153.355C288.78 153.178 288.738 153.005 288.664 152.852C288.587 152.691 288.477 152.554 288.343 152.446C288.215 152.342 288.066 152.266 287.904 152.224C287.651 152.137 287.25 152.047 286.769 151.955C286.26 151.858 285.627 151.752 284.91 151.64C283.846 151.473 282.588 151.29 281.269 151.098C280.813 151.032 280.35 150.965 279.884 150.896C278.07 150.631 276.223 150.353 274.65 150.078C273.355 149.851 272.273 149.63 271.551 149.426C271.58 149.338 271.616 149.238 271.659 149.126C271.784 148.799 271.962 148.398 272.187 147.931C272.636 146.998 273.264 145.826 274.017 144.495C275.523 141.836 277.518 138.567 279.561 135.364C281.605 132.161 283.692 129.028 285.383 126.64C286.229 125.445 286.971 124.442 287.557 123.711C287.851 123.345 288.1 123.053 288.3 122.841C288.4 122.735 288.484 122.654 288.551 122.596C288.584 122.567 288.61 122.546 288.631 122.531C288.652 122.516 288.662 122.511 288.661 122.511C288.703 122.49 288.817 122.452 289.036 122.419C289.245 122.387 289.515 122.364 289.841 122.351C290.493 122.325 291.342 122.34 292.331 122.392C294.307 122.496 296.812 122.748 299.369 123.105C301.926 123.462 304.524 123.922 306.686 124.44C307.768 124.7 308.734 124.972 309.528 125.251C310.097 125.451 310.561 125.648 310.912 125.838C310.431 126.673 309.615 127.877 308.602 129.293C307.419 130.947 305.989 132.862 304.562 134.761C304.249 135.176 303.938 135.591 303.628 136.001C302.525 137.468 301.456 138.887 300.546 140.123C299.387 141.696 298.461 143.003 298.048 143.736L298.048 143.738C297.878 144.041 297.712 144.428 297.733 144.805C297.744 145.011 297.812 145.226 297.973 145.408C298.131 145.586 298.342 145.69 298.568 145.745C298.678 145.772 299.032 145.821 299.51 145.886C299.983 145.95 300.62 146.033 301.375 146.132L301.503 146.149C303.125 146.361 305.264 146.641 307.49 146.952C309.717 147.262 312.029 147.603 313.997 147.936Z" fill="#FFD1A9" stroke="#FFD1A9"/>
<mask id="path-3-outside-1_9_1349" maskUnits="userSpaceOnUse" x="85.6606" y="34.1248" width="201" height="278" fill="black">
<rect fill="white" x="85.6606" y="34.1248" width="201" height="278"/>
<path d="M273.283 89.5332C273.703 88.945 273.165 88.1887 272.711 87.6004C273.997 86.2785 275.423 85.1005 276.963 84.0879C279.564 82.7919 281.941 81.0902 284.005 79.0459C284.862 78.1552 286.476 76.3232 285.871 75.2476C285.266 74.172 284.19 74.1048 282.728 74.7266C283.361 74.0617 283.879 73.2944 284.257 72.4577C284.728 71.1468 283.619 70.088 281.215 71.0628C282.089 69.6678 282.291 68.2056 280.812 67.4998C279.619 66.9283 277.871 68.2897 276.862 69.1804C274.882 70.9106 273.023 72.7749 271.299 74.7602C270.241 72.5417 268.56 69.9871 266.459 70.7939C264.358 71.6006 265.989 75.214 267.064 77.1804L263.249 79.819C262.672 79.5076 262.021 79.3625 261.367 79.3988C257.031 80.1383 237.115 95.2979 235.098 95.2979C233.552 95.2979 211.468 84.7097 192.376 81.6509C192.339 81.5363 192.271 81.4349 192.178 81.3576C192.086 81.2803 191.974 81.2304 191.855 81.2139C188.524 80.6456 185.149 80.3926 181.771 80.4577C181.669 80.4647 181.569 80.4937 181.48 80.5429C181.388 80.5924 181.311 80.6609 181.25 80.7434H179.838C179.502 79.382 178.258 76.2392 177.821 75.0291C178.964 74.0375 180.544 73.5333 181.367 71.9367C182.88 68.9788 182.813 63.8359 182.393 60.5418C184.292 59.0965 184.342 56.7772 183.905 54.4074C183.737 53.4495 183.216 51.2814 182.409 50.7436C181.956 50.4411 180.998 50.7436 180.174 51.0461C179.351 49.1302 179.351 50.0041 179.687 49.231C179.844 48.8747 179.935 48.4934 179.956 48.105C180.846 48.3739 182.695 46.5924 182.056 44.2395C181.722 43.3973 181.311 42.5872 180.83 41.8193C181.065 41.2479 181.569 40.5588 179.989 38.458C179.309 37.724 178.425 37.2091 177.451 36.979H176.678C176.121 36.1695 175.302 35.5761 174.359 35.2984C172.936 34.9353 171.426 35.1468 170.157 35.8866C169.821 36.1387 169.552 36.4748 169.216 36.7101C168.456 36.2487 167.585 36.0048 166.695 36.0048C165.806 36.0048 164.935 36.2487 164.174 36.7101C163.729 36.8846 163.324 37.1474 162.984 37.4823C162.644 37.8175 162.373 38.2178 162.191 38.6597C161.368 38.3755 160.494 38.2661 159.625 38.3385C158.758 38.4109 157.914 38.6633 157.149 39.0798C154.246 40.6542 152.074 43.3026 151.099 46.4579C151.072 46.9337 151.072 47.4107 151.099 47.8865H150.914C148.393 47.5167 145.183 53.4999 147.754 58.1553C148.057 58.7099 148.443 59.2309 148.813 59.836C149.889 61.5166 149.468 62.0208 151.872 64.0712C152.578 64.6763 152.695 64.6258 153.132 64.9956C153.569 65.3653 153.401 65.1805 153.653 66.1216C153.791 66.6759 154.037 67.1979 154.378 67.6565C154.718 68.1152 155.146 68.5017 155.637 68.7939C155.816 70.4379 156.516 71.981 157.636 73.1972C157.991 73.5945 158.405 73.9342 158.863 74.2056C158.987 74.2753 159.125 74.3156 159.267 74.3232C159.771 77.4493 160.393 81.5165 160.662 83.2475L159.166 84.0543C157.209 84.8417 155.306 85.7569 153.468 86.7937C153.324 86.8937 153.222 87.0431 153.183 87.2139C151.401 88.1551 149.721 89.0458 148.763 89.6172C135.418 97.5331 97.5193 149.718 97.1328 152.104C97.0903 152.241 97.0903 152.387 97.1328 152.524C97.6761 153.391 98.338 154.177 99.0991 154.86C98.8648 155.289 98.5827 155.688 98.2588 156.054C94.8975 158.255 89.8558 161.533 87.15 164.457C86.9599 164.627 86.8175 164.842 86.7368 165.083C86.6559 165.324 86.639 165.582 86.6882 165.831C86.7374 166.08 86.8508 166.313 87.0173 166.506C87.1839 166.698 87.3975 166.844 87.637 166.928C88.1412 167.096 88.2256 167.045 91.5029 165.247C90.602 166.037 89.8653 166.996 89.3348 168.07C89.1163 168.995 89.9567 169.533 91.0155 169.364C91.611 169.208 92.1782 168.958 92.6961 168.625C92.3927 169.093 92.2317 169.639 92.2317 170.197C92.2317 170.754 92.3927 171.3 92.6961 171.768C94.3768 173.885 98.7801 167.213 101.099 165.566C102.041 166.759 103.318 169.549 105.351 168.81C107.116 168.154 105.183 164.272 105.351 163.146C106.035 162.489 106.765 161.883 107.536 161.331C108.833 162.292 110.315 162.974 111.889 163.331C114.662 163.331 143.603 134.121 145.805 131.785C145.015 139.213 141.032 171.096 141.872 177.297C142.258 180.104 148.998 180.507 151.838 180.659C150.981 200.826 150.41 231.381 150.258 231.7C145.805 241.297 144.595 243.919 143.099 246.826C140.376 252.036 128.914 271.263 127.62 275.633C127.435 276.322 127.418 276.591 128.141 277.868C125.975 280.145 123.965 282.565 122.124 285.111C121.2 286.792 125.166 302.456 127.973 308.002C128.612 309.246 129.654 311.162 131.048 311.113C135.25 310.96 135.233 295.868 135.116 291.649C135.115 291.519 135.067 291.394 134.981 291.296C135.743 290.159 136.574 289.071 137.469 288.036C138.003 288.404 138.565 288.729 139.149 289.011C139.721 289.263 140.359 288.826 140.83 288.439C146.427 284.036 176.611 246.423 183.082 228.675C186.023 220.574 189.939 209.381 191.048 201.448C191.726 196.433 191.789 191.353 191.233 186.322C191.233 186.251 191.261 186.182 191.311 186.132C191.362 186.082 191.43 186.053 191.502 186.053C191.573 186.053 191.642 186.082 191.692 186.132C191.743 186.182 191.771 186.251 191.771 186.322C192.613 191.381 192.776 196.531 192.258 201.633C191.014 212.641 182.325 235.582 177.687 244.019C181.687 243.28 189.821 241.666 193.754 240.49C206.863 236.507 218.964 224.625 220.023 211.28C220.366 204.993 220.366 198.694 220.023 192.406C219.909 183.727 218.782 175.091 216.661 166.675C220.224 164.743 223.485 162.474 224.544 160.39C226.812 155.936 220.812 130.306 219.502 123.113C226.678 123.903 238.896 125.331 244.594 120.877C251.115 115.634 265.199 100.878 273.283 89.5332ZM134.208 290.725C131.183 288.893 126.948 284.54 126.309 281.128C126.998 280.254 127.721 279.448 128.393 278.54C130.671 282.016 133.511 285.089 136.796 287.632C135.873 288.612 135.009 289.644 134.208 290.725ZM267.82 77.651C267.907 77.5956 267.971 77.5089 267.994 77.4089C268.019 77.3087 268.005 77.203 267.955 77.1131C267.367 76.0207 265.602 72.172 266.829 71.735C267.535 71.4661 268.157 71.9031 268.678 72.4913C269.473 73.5006 270.092 74.6371 270.51 75.8526C270.54 75.9514 270.598 76.04 270.676 76.1087C270.753 76.1775 270.848 76.2236 270.949 76.2429C271.052 76.2618 271.157 76.2526 271.255 76.2166C271.351 76.1805 271.437 76.1185 271.501 76.0375C273.182 74.172 277.115 69.9199 279.333 68.7771C281.014 67.9031 281.417 69.5166 277.299 73.2812C276.354 74.0024 275.445 74.7709 274.577 75.5837C274.529 75.6497 274.502 75.7292 274.502 75.8108C274.502 75.8921 274.529 75.9715 274.577 76.0375C274.577 76.4745 274.93 76.9619 275.535 76.5081C276.996 75.2256 278.54 74.0412 280.157 72.9619C280.982 72.3758 281.941 72.0058 282.946 71.8863C282.442 73.4325 277.753 77.6341 277.35 78.1047C277.222 78.2196 277.144 78.3797 277.133 78.5512C277.123 78.7226 277.179 78.8916 277.291 79.0215C277.405 79.1513 277.563 79.232 277.734 79.246C277.906 79.2601 278.075 79.2063 278.207 79.0963C280.072 77.8862 283.333 75.0627 284.459 75.4829C285.585 75.9031 282.241 79.0291 281.4 79.7686C276.577 83.9534 277.82 81.2644 272.241 86.945C269.812 84.2844 267.024 81.9764 263.955 80.0879L267.82 77.651ZM194.796 158.037C194.51 155.718 194.157 153.213 193.72 150.608L194.443 149.65C197.804 145.331 198.813 138.457 198.493 133.062C200.292 140.945 201.72 148.692 202.813 156.39L194.796 158.037ZM169.804 100.491C165.384 97.1298 158.275 91.3315 154.141 87.3652L160.863 84.0038C167.037 89.77 172.321 96.4193 176.544 103.735C183.002 115.597 187.792 128.294 190.779 141.466L166.813 107.567L169.939 101.079C169.981 100.979 169.989 100.869 169.965 100.764C169.942 100.658 169.886 100.563 169.804 100.491ZM181.166 81.4324C181.267 81.6173 182.426 84.0879 184.191 88.4072C184.191 88.592 183.872 92.7937 183.72 94.2727C181.575 93.4226 179.552 92.2922 177.704 90.9113C178.073 89.4492 179.737 82.8106 179.855 81.3148L181.166 81.4324ZM175.199 99.4827C175.317 99.1802 175.435 98.7768 175.569 98.3062L176.695 98.8945C177.334 99.3146 177.082 98.0373 177.653 101.735C177.653 102.357 177.821 103.046 177.855 103.802C177.082 102.407 176.124 100.911 175.216 99.4827H175.199ZM174.258 98.071C171.083 93.5674 167.468 89.3902 163.468 85.6005L176.124 91.0962C175.636 92.2559 174.93 95.8021 174.275 98.071H174.258ZM187.182 107.92C185.502 103.331 184.208 98.2054 183.569 96.8609C183.607 96.4416 183.607 96.0196 183.569 95.6004C183.813 95.6908 184.066 95.7474 184.325 95.7685C184.488 95.7703 184.645 95.7134 184.768 95.6083C184.892 95.5035 184.974 95.3575 184.998 95.197C185.132 94.6424 185.351 91.8357 185.384 91.2139C190.274 103.558 194.355 116.206 197.603 129.079C188.107 108.878 189.569 114.726 187.199 107.92H187.182ZM201.082 140.003C197.25 121.634 190.51 98.7264 182.846 81.7518C185.662 81.7533 188.471 81.9782 191.25 82.424C192.678 95.197 191.485 94.7601 192.443 95.2643C193.401 95.7684 199.166 98.0878 200.023 98.4407C199.939 99.7348 201.149 136.743 201.098 140.003H201.082ZM181.737 51.8192C182.614 53.7312 182.922 55.8543 182.628 57.9368C182.491 58.467 182.21 58.9486 181.816 59.3281C181.421 59.7079 180.929 59.9707 180.394 60.0875C179.861 60.2042 179.303 60.1703 178.786 59.9894C178.269 59.8085 177.814 59.4876 177.468 59.0629C176.666 57.3736 176.064 55.597 175.67 53.7688C176.124 53.1806 180.964 52.0041 181.737 51.8192ZM158.611 68.6258C157.998 68.3462 157.369 68.0996 156.729 67.8863C156.299 67.7097 155.917 67.4371 155.609 67.0894C155.3 66.7416 155.076 66.3282 154.953 65.8802C154.83 65.4326 154.81 64.9626 154.897 64.5061C154.984 64.0498 155.173 63.6193 155.452 63.2477C156.51 62.357 157.468 62.4074 158.342 63.7351C158.897 64.7603 158.88 64.8443 159.132 64.9452C159.205 64.977 159.284 64.9931 159.362 64.9922C159.441 64.9913 159.519 64.9736 159.59 64.9403C159.662 64.907 159.726 64.8584 159.777 64.7985C159.828 64.7386 159.866 64.6683 159.889 64.5922C160.138 63.5404 160.177 62.4495 160.006 61.3822C159.805 60.2225 159.771 55.0797 159.805 54.9116C160.296 55.1705 160.847 55.2924 161.401 55.2646C164.443 55.1469 165.048 53.5839 166.258 52.3066C167.653 52.4411 167.939 53.1133 169.519 52.3066C170.258 51.8858 170.938 51.3658 171.536 50.7604C172.019 50.9581 172.485 51.1943 172.93 51.4663C173.938 51.9506 175.073 52.0994 176.171 51.8907C177.269 51.682 178.272 51.1268 179.031 50.3066C179.216 50.6596 179.384 51.0125 179.535 51.3823C177.991 51.8617 176.537 52.5942 175.233 53.5503C174.947 53.9032 175.367 55.8192 175.468 56.273C174.061 56.4502 172.698 56.889 171.452 57.5671C171.199 56.6931 170.645 55.0629 169.771 54.6091C169.508 54.5288 169.228 54.5288 168.964 54.6091C167.452 54.8444 162.023 56.4746 161.368 57.3654C160.796 57.9872 162.426 62.7939 162.931 63.5838C164.863 66.5754 170.527 65.7015 171.586 62.2057C171.848 61.0326 171.848 59.8158 171.586 58.6427C172.073 58.6427 173.536 58.1217 173.704 58.0713C174.863 60.6763 175.199 60.8276 176.544 63.6343C176.359 63.7855 176.057 64.0376 175.804 64.2057C174.611 64.9956 174.359 64.8611 174.426 65.1973C174.446 65.2639 174.489 65.3213 174.548 65.3583C174.607 65.3956 174.677 65.4099 174.746 65.3989C175.451 65.2981 176.141 65.1062 176.796 64.8275C177.188 64.6812 177.512 64.3933 177.704 64.0208C178.174 62.962 175.569 58.9788 174.544 57.7856C174.746 57.7856 175.216 57.4494 175.569 57.2646C176.04 59.1469 176.359 60.6259 178.174 61.3654C178.699 61.5634 179.258 61.6535 179.818 61.6306C180.379 61.6074 180.928 61.4714 181.435 61.2309C181.704 64.1889 181.653 68.9956 180.241 71.6174C179.519 72.9787 177.737 73.4997 176.594 74.6258C176.258 74.9451 176.477 75.3989 176.594 75.8863C178.46 81.0795 178.493 81.0627 178.393 81.735C177.898 84.5252 177.208 87.2771 176.325 89.9702C175.905 89.7853 171.183 87.2811 161.939 83.6845C161.653 81.7854 160.124 71.651 159.636 69.7855C159.67 69.13 159.586 68.9788 158.611 68.5418V68.6258ZM170.376 61.7687C169.838 63.6006 167.3 64.3906 165.485 63.8864C163.67 63.3822 163.552 62.4578 162.695 60.2729C162.293 59.4384 162.016 58.5492 161.872 57.6343C162.426 57.0293 168.494 55.7856 169.25 55.6679C170.31 57.4827 170.709 59.6092 170.376 61.6847V61.7687ZM104.612 162.675C103.973 163.297 104.83 165.331 104.965 167.096C104.965 167.247 104.965 167.902 104.864 167.953C103.939 168.255 103.082 166.86 102.561 166.02C102.04 165.18 101.519 164.037 100.696 164.339C99.0151 165.129 95.116 170.306 93.5866 170.843C92.8135 169.365 97.2339 165.146 97.3852 164.911C97.45 164.803 97.4839 164.678 97.4833 164.554C97.4827 164.428 97.4475 164.303 97.3818 164.197C97.3158 164.089 97.2217 164.002 97.1099 163.943C96.9977 163.886 96.8721 163.86 96.7465 163.869C96.444 163.869 96.242 164.138 95.7714 164.558C94.3401 165.954 92.7019 167.122 90.9143 168.02C92.5351 166.16 94.2695 164.404 96.1076 162.76C96.1986 162.666 96.2625 162.55 96.2927 162.423C96.2927 162.423 95.9398 161.533 95.2507 161.886C94.276 162.423 89.5362 165.163 88.0407 165.869C87.839 165.734 87.9567 165.533 88.0407 165.331C90.4101 162.423 95.6205 158.894 98.8134 156.659C99.1884 156.272 99.5004 155.831 99.7378 155.348C101.95 157.405 104.309 159.299 106.797 161.012C106.03 161.515 105.3 162.07 104.612 162.675ZM143.721 177.953C143.351 177.717 143.082 177.499 143.032 177.196C142.107 170.339 147.25 131.482 147.166 129.953C147.166 129.863 147.148 129.775 147.113 129.692C147.079 129.609 147.027 129.534 146.963 129.472C146.899 129.409 146.823 129.36 146.739 129.327C146.656 129.294 146.567 129.279 146.477 129.281C145.62 129.281 147.132 129.281 125.721 149.785C124.309 151.113 113.519 161.432 111.721 162.121C109.25 161.936 99.9563 154.524 98.4437 152.188C101.368 146.272 136.83 97.6004 149.099 90.1551C150.04 89.5836 151.653 88.6929 153.418 87.7517C154.029 88.3274 154.686 88.8499 155.384 89.3147C159.284 93.0122 164.712 97.6172 168.83 101.079L165.62 107.449C165.571 107.533 165.545 107.629 165.545 107.726C165.545 107.824 165.571 107.919 165.62 108.004C191.687 145.398 191.3 144.978 191.468 144.978C193.139 153.619 194.178 162.37 194.577 171.163C194.577 173.533 194.577 173.331 194.678 173.163C194.779 172.995 194.678 173.28 194.678 173.28C190.611 177.717 150.359 181.852 143.721 177.953ZM236.627 122.272C229.014 123.331 220.409 121.751 218.745 121.684C217.821 117.204 215.978 112.964 213.334 109.231C213.293 109.176 213.234 109.139 213.167 109.127C213.101 109.114 213.033 109.127 212.975 109.163C212.918 109.199 212.875 109.256 212.857 109.321C212.841 109.387 212.848 109.456 212.88 109.516C213.855 111.499 217.115 120.054 217.922 122.138C217.67 122.945 225.518 155.398 223.3 159.768C221.317 163.717 209.771 168.692 205.603 170.121C204.779 160.764 203.432 151.461 201.569 142.255C202.14 137.415 201.401 108.642 201.182 98.0037C201.175 97.8803 201.135 97.7608 201.063 97.66C200.992 97.5585 200.894 97.48 200.779 97.4323L193.233 94.2559C193.199 90.262 192.946 86.2727 192.477 82.3064C211.317 85.5669 233.266 96.3399 235.098 96.3567C237.753 96.3567 257.484 81.2308 261.568 80.6257C263.384 80.34 271.182 87.1467 272.089 89.029C264.123 100.155 250.123 114.777 243.636 119.835C241.546 121.233 239.133 122.072 236.627 122.272Z"/>
</mask>
<path d="M273.283 89.5332C273.703 88.945 273.165 88.1887 272.711 87.6004C273.997 86.2785 275.423 85.1005 276.963 84.0879C279.564 82.7919 281.941 81.0902 284.005 79.0459C284.862 78.1552 286.476 76.3232 285.871 75.2476C285.266 74.172 284.19 74.1048 282.728 74.7266C283.361 74.0617 283.879 73.2944 284.257 72.4577C284.728 71.1468 283.619 70.088 281.215 71.0628C282.089 69.6678 282.291 68.2056 280.812 67.4998C279.619 66.9283 277.871 68.2897 276.862 69.1804C274.882 70.9106 273.023 72.7749 271.299 74.7602C270.241 72.5417 268.56 69.9871 266.459 70.7939C264.358 71.6006 265.989 75.214 267.064 77.1804L263.249 79.819C262.672 79.5076 262.021 79.3625 261.367 79.3988C257.031 80.1383 237.115 95.2979 235.098 95.2979C233.552 95.2979 211.468 84.7097 192.376 81.6509C192.339 81.5363 192.271 81.4349 192.178 81.3576C192.086 81.2803 191.974 81.2304 191.855 81.2139C188.524 80.6456 185.149 80.3926 181.771 80.4577C181.669 80.4647 181.569 80.4937 181.48 80.5429C181.388 80.5924 181.311 80.6609 181.25 80.7434H179.838C179.502 79.382 178.258 76.2392 177.821 75.0291C178.964 74.0375 180.544 73.5333 181.367 71.9367C182.88 68.9788 182.813 63.8359 182.393 60.5418C184.292 59.0965 184.342 56.7772 183.905 54.4074C183.737 53.4495 183.216 51.2814 182.409 50.7436C181.956 50.4411 180.998 50.7436 180.174 51.0461C179.351 49.1302 179.351 50.0041 179.687 49.231C179.844 48.8747 179.935 48.4934 179.956 48.105C180.846 48.3739 182.695 46.5924 182.056 44.2395C181.722 43.3973 181.311 42.5872 180.83 41.8193C181.065 41.2479 181.569 40.5588 179.989 38.458C179.309 37.724 178.425 37.2091 177.451 36.979H176.678C176.121 36.1695 175.302 35.5761 174.359 35.2984C172.936 34.9353 171.426 35.1468 170.157 35.8866C169.821 36.1387 169.552 36.4748 169.216 36.7101C168.456 36.2487 167.585 36.0048 166.695 36.0048C165.806 36.0048 164.935 36.2487 164.174 36.7101C163.729 36.8846 163.324 37.1474 162.984 37.4823C162.644 37.8175 162.373 38.2178 162.191 38.6597C161.368 38.3755 160.494 38.2661 159.625 38.3385C158.758 38.4109 157.914 38.6633 157.149 39.0798C154.246 40.6542 152.074 43.3026 151.099 46.4579C151.072 46.9337 151.072 47.4107 151.099 47.8865H150.914C148.393 47.5167 145.183 53.4999 147.754 58.1553C148.057 58.7099 148.443 59.2309 148.813 59.836C149.889 61.5166 149.468 62.0208 151.872 64.0712C152.578 64.6763 152.695 64.6258 153.132 64.9956C153.569 65.3653 153.401 65.1805 153.653 66.1216C153.791 66.6759 154.037 67.1979 154.378 67.6565C154.718 68.1152 155.146 68.5017 155.637 68.7939C155.816 70.4379 156.516 71.981 157.636 73.1972C157.991 73.5945 158.405 73.9342 158.863 74.2056C158.987 74.2753 159.125 74.3156 159.267 74.3232C159.771 77.4493 160.393 81.5165 160.662 83.2475L159.166 84.0543C157.209 84.8417 155.306 85.7569 153.468 86.7937C153.324 86.8937 153.222 87.0431 153.183 87.2139C151.401 88.1551 149.721 89.0458 148.763 89.6172C135.418 97.5331 97.5193 149.718 97.1328 152.104C97.0903 152.241 97.0903 152.387 97.1328 152.524C97.6761 153.391 98.338 154.177 99.0991 154.86C98.8648 155.289 98.5827 155.688 98.2588 156.054C94.8975 158.255 89.8558 161.533 87.15 164.457C86.9599 164.627 86.8175 164.842 86.7368 165.083C86.6559 165.324 86.639 165.582 86.6882 165.831C86.7374 166.08 86.8508 166.313 87.0173 166.506C87.1839 166.698 87.3975 166.844 87.637 166.928C88.1412 167.096 88.2256 167.045 91.5029 165.247C90.602 166.037 89.8653 166.996 89.3348 168.07C89.1163 168.995 89.9567 169.533 91.0155 169.364C91.611 169.208 92.1782 168.958 92.6961 168.625C92.3927 169.093 92.2317 169.639 92.2317 170.197C92.2317 170.754 92.3927 171.3 92.6961 171.768C94.3768 173.885 98.7801 167.213 101.099 165.566C102.041 166.759 103.318 169.549 105.351 168.81C107.116 168.154 105.183 164.272 105.351 163.146C106.035 162.489 106.765 161.883 107.536 161.331C108.833 162.292 110.315 162.974 111.889 163.331C114.662 163.331 143.603 134.121 145.805 131.785C145.015 139.213 141.032 171.096 141.872 177.297C142.258 180.104 148.998 180.507 151.838 180.659C150.981 200.826 150.41 231.381 150.258 231.7C145.805 241.297 144.595 243.919 143.099 246.826C140.376 252.036 128.914 271.263 127.62 275.633C127.435 276.322 127.418 276.591 128.141 277.868C125.975 280.145 123.965 282.565 122.124 285.111C121.2 286.792 125.166 302.456 127.973 308.002C128.612 309.246 129.654 311.162 131.048 311.113C135.25 310.96 135.233 295.868 135.116 291.649C135.115 291.519 135.067 291.394 134.981 291.296C135.743 290.159 136.574 289.071 137.469 288.036C138.003 288.404 138.565 288.729 139.149 289.011C139.721 289.263 140.359 288.826 140.83 288.439C146.427 284.036 176.611 246.423 183.082 228.675C186.023 220.574 189.939 209.381 191.048 201.448C191.726 196.433 191.789 191.353 191.233 186.322C191.233 186.251 191.261 186.182 191.311 186.132C191.362 186.082 191.43 186.053 191.502 186.053C191.573 186.053 191.642 186.082 191.692 186.132C191.743 186.182 191.771 186.251 191.771 186.322C192.613 191.381 192.776 196.531 192.258 201.633C191.014 212.641 182.325 235.582 177.687 244.019C181.687 243.28 189.821 241.666 193.754 240.49C206.863 236.507 218.964 224.625 220.023 211.28C220.366 204.993 220.366 198.694 220.023 192.406C219.909 183.727 218.782 175.091 216.661 166.675C220.224 164.743 223.485 162.474 224.544 160.39C226.812 155.936 220.812 130.306 219.502 123.113C226.678 123.903 238.896 125.331 244.594 120.877C251.115 115.634 265.199 100.878 273.283 89.5332ZM134.208 290.725C131.183 288.893 126.948 284.54 126.309 281.128C126.998 280.254 127.721 279.448 128.393 278.54C130.671 282.016 133.511 285.089 136.796 287.632C135.873 288.612 135.009 289.644 134.208 290.725ZM267.82 77.651C267.907 77.5956 267.971 77.5089 267.994 77.4089C268.019 77.3087 268.005 77.203 267.955 77.1131C267.367 76.0207 265.602 72.172 266.829 71.735C267.535 71.4661 268.157 71.9031 268.678 72.4913C269.473 73.5006 270.092 74.6371 270.51 75.8526C270.54 75.9514 270.598 76.04 270.676 76.1087C270.753 76.1775 270.848 76.2236 270.949 76.2429C271.052 76.2618 271.157 76.2526 271.255 76.2166C271.351 76.1805 271.437 76.1185 271.501 76.0375C273.182 74.172 277.115 69.9199 279.333 68.7771C281.014 67.9031 281.417 69.5166 277.299 73.2812C276.354 74.0024 275.445 74.7709 274.577 75.5837C274.529 75.6497 274.502 75.7292 274.502 75.8108C274.502 75.8921 274.529 75.9715 274.577 76.0375C274.577 76.4745 274.93 76.9619 275.535 76.5081C276.996 75.2256 278.54 74.0412 280.157 72.9619C280.982 72.3758 281.941 72.0058 282.946 71.8863C282.442 73.4325 277.753 77.6341 277.35 78.1047C277.222 78.2196 277.144 78.3797 277.133 78.5512C277.123 78.7226 277.179 78.8916 277.291 79.0215C277.405 79.1513 277.563 79.232 277.734 79.246C277.906 79.2601 278.075 79.2063 278.207 79.0963C280.072 77.8862 283.333 75.0627 284.459 75.4829C285.585 75.9031 282.241 79.0291 281.4 79.7686C276.577 83.9534 277.82 81.2644 272.241 86.945C269.812 84.2844 267.024 81.9764 263.955 80.0879L267.82 77.651ZM194.796 158.037C194.51 155.718 194.157 153.213 193.72 150.608L194.443 149.65C197.804 145.331 198.813 138.457 198.493 133.062C200.292 140.945 201.72 148.692 202.813 156.39L194.796 158.037ZM169.804 100.491C165.384 97.1298 158.275 91.3315 154.141 87.3652L160.863 84.0038C167.037 89.77 172.321 96.4193 176.544 103.735C183.002 115.597 187.792 128.294 190.779 141.466L166.813 107.567L169.939 101.079C169.981 100.979 169.989 100.869 169.965 100.764C169.942 100.658 169.886 100.563 169.804 100.491ZM181.166 81.4324C181.267 81.6173 182.426 84.0879 184.191 88.4072C184.191 88.592 183.872 92.7937 183.72 94.2727C181.575 93.4226 179.552 92.2922 177.704 90.9113C178.073 89.4492 179.737 82.8106 179.855 81.3148L181.166 81.4324ZM175.199 99.4827C175.317 99.1802 175.435 98.7768 175.569 98.3062L176.695 98.8945C177.334 99.3146 177.082 98.0373 177.653 101.735C177.653 102.357 177.821 103.046 177.855 103.802C177.082 102.407 176.124 100.911 175.216 99.4827H175.199ZM174.258 98.071C171.083 93.5674 167.468 89.3902 163.468 85.6005L176.124 91.0962C175.636 92.2559 174.93 95.8021 174.275 98.071H174.258ZM187.182 107.92C185.502 103.331 184.208 98.2054 183.569 96.8609C183.607 96.4416 183.607 96.0196 183.569 95.6004C183.813 95.6908 184.066 95.7474 184.325 95.7685C184.488 95.7703 184.645 95.7134 184.768 95.6083C184.892 95.5035 184.974 95.3575 184.998 95.197C185.132 94.6424 185.351 91.8357 185.384 91.2139C190.274 103.558 194.355 116.206 197.603 129.079C188.107 108.878 189.569 114.726 187.199 107.92H187.182ZM201.082 140.003C197.25 121.634 190.51 98.7264 182.846 81.7518C185.662 81.7533 188.471 81.9782 191.25 82.424C192.678 95.197 191.485 94.7601 192.443 95.2643C193.401 95.7684 199.166 98.0878 200.023 98.4407C199.939 99.7348 201.149 136.743 201.098 140.003H201.082ZM181.737 51.8192C182.614 53.7312 182.922 55.8543 182.628 57.9368C182.491 58.467 182.21 58.9486 181.816 59.3281C181.421 59.7079 180.929 59.9707 180.394 60.0875C179.861 60.2042 179.303 60.1703 178.786 59.9894C178.269 59.8085 177.814 59.4876 177.468 59.0629C176.666 57.3736 176.064 55.597 175.67 53.7688C176.124 53.1806 180.964 52.0041 181.737 51.8192ZM158.611 68.6258C157.998 68.3462 157.369 68.0996 156.729 67.8863C156.299 67.7097 155.917 67.4371 155.609 67.0894C155.3 66.7416 155.076 66.3282 154.953 65.8802C154.83 65.4326 154.81 64.9626 154.897 64.5061C154.984 64.0498 155.173 63.6193 155.452 63.2477C156.51 62.357 157.468 62.4074 158.342 63.7351C158.897 64.7603 158.88 64.8443 159.132 64.9452C159.205 64.977 159.284 64.9931 159.362 64.9922C159.441 64.9913 159.519 64.9736 159.59 64.9403C159.662 64.907 159.726 64.8584 159.777 64.7985C159.828 64.7386 159.866 64.6683 159.889 64.5922C160.138 63.5404 160.177 62.4495 160.006 61.3822C159.805 60.2225 159.771 55.0797 159.805 54.9116C160.296 55.1705 160.847 55.2924 161.401 55.2646C164.443 55.1469 165.048 53.5839 166.258 52.3066C167.653 52.4411 167.939 53.1133 169.519 52.3066C170.258 51.8858 170.938 51.3658 171.536 50.7604C172.019 50.9581 172.485 51.1943 172.93 51.4663C173.938 51.9506 175.073 52.0994 176.171 51.8907C177.269 51.682 178.272 51.1268 179.031 50.3066C179.216 50.6596 179.384 51.0125 179.535 51.3823C177.991 51.8617 176.537 52.5942 175.233 53.5503C174.947 53.9032 175.367 55.8192 175.468 56.273C174.061 56.4502 172.698 56.889 171.452 57.5671C171.199 56.6931 170.645 55.0629 169.771 54.6091C169.508 54.5288 169.228 54.5288 168.964 54.6091C167.452 54.8444 162.023 56.4746 161.368 57.3654C160.796 57.9872 162.426 62.7939 162.931 63.5838C164.863 66.5754 170.527 65.7015 171.586 62.2057C171.848 61.0326 171.848 59.8158 171.586 58.6427C172.073 58.6427 173.536 58.1217 173.704 58.0713C174.863 60.6763 175.199 60.8276 176.544 63.6343C176.359 63.7855 176.057 64.0376 175.804 64.2057C174.611 64.9956 174.359 64.8611 174.426 65.1973C174.446 65.2639 174.489 65.3213 174.548 65.3583C174.607 65.3956 174.677 65.4099 174.746 65.3989C175.451 65.2981 176.141 65.1062 176.796 64.8275C177.188 64.6812 177.512 64.3933 177.704 64.0208C178.174 62.962 175.569 58.9788 174.544 57.7856C174.746 57.7856 175.216 57.4494 175.569 57.2646C176.04 59.1469 176.359 60.6259 178.174 61.3654C178.699 61.5634 179.258 61.6535 179.818 61.6306C180.379 61.6074 180.928 61.4714 181.435 61.2309C181.704 64.1889 181.653 68.9956 180.241 71.6174C179.519 72.9787 177.737 73.4997 176.594 74.6258C176.258 74.9451 176.477 75.3989 176.594 75.8863C178.46 81.0795 178.493 81.0627 178.393 81.735C177.898 84.5252 177.208 87.2771 176.325 89.9702C175.905 89.7853 171.183 87.2811 161.939 83.6845C161.653 81.7854 160.124 71.651 159.636 69.7855C159.67 69.13 159.586 68.9788 158.611 68.5418V68.6258ZM170.376 61.7687C169.838 63.6006 167.3 64.3906 165.485 63.8864C163.67 63.3822 163.552 62.4578 162.695 60.2729C162.293 59.4384 162.016 58.5492 161.872 57.6343C162.426 57.0293 168.494 55.7856 169.25 55.6679C170.31 57.4827 170.709 59.6092 170.376 61.6847V61.7687ZM104.612 162.675C103.973 163.297 104.83 165.331 104.965 167.096C104.965 167.247 104.965 167.902 104.864 167.953C103.939 168.255 103.082 166.86 102.561 166.02C102.04 165.18 101.519 164.037 100.696 164.339C99.0151 165.129 95.116 170.306 93.5866 170.843C92.8135 169.365 97.2339 165.146 97.3852 164.911C97.45 164.803 97.4839 164.678 97.4833 164.554C97.4827 164.428 97.4475 164.303 97.3818 164.197C97.3158 164.089 97.2217 164.002 97.1099 163.943C96.9977 163.886 96.8721 163.86 96.7465 163.869C96.444 163.869 96.242 164.138 95.7714 164.558C94.3401 165.954 92.7019 167.122 90.9143 168.02C92.5351 166.16 94.2695 164.404 96.1076 162.76C96.1986 162.666 96.2625 162.55 96.2927 162.423C96.2927 162.423 95.9398 161.533 95.2507 161.886C94.276 162.423 89.5362 165.163 88.0407 165.869C87.839 165.734 87.9567 165.533 88.0407 165.331C90.4101 162.423 95.6205 158.894 98.8134 156.659C99.1884 156.272 99.5004 155.831 99.7378 155.348C101.95 157.405 104.309 159.299 106.797 161.012C106.03 161.515 105.3 162.07 104.612 162.675ZM143.721 177.953C143.351 177.717 143.082 177.499 143.032 177.196C142.107 170.339 147.25 131.482 147.166 129.953C147.166 129.863 147.148 129.775 147.113 129.692C147.079 129.609 147.027 129.534 146.963 129.472C146.899 129.409 146.823 129.36 146.739 129.327C146.656 129.294 146.567 129.279 146.477 129.281C145.62 129.281 147.132 129.281 125.721 149.785C124.309 151.113 113.519 161.432 111.721 162.121C109.25 161.936 99.9563 154.524 98.4437 152.188C101.368 146.272 136.83 97.6004 149.099 90.1551C150.04 89.5836 151.653 88.6929 153.418 87.7517C154.029 88.3274 154.686 88.8499 155.384 89.3147C159.284 93.0122 164.712 97.6172 168.83 101.079L165.62 107.449C165.571 107.533 165.545 107.629 165.545 107.726C165.545 107.824 165.571 107.919 165.62 108.004C191.687 145.398 191.3 144.978 191.468 144.978C193.139 153.619 194.178 162.37 194.577 171.163C194.577 173.533 194.577 173.331 194.678 173.163C194.779 172.995 194.678 173.28 194.678 173.28C190.611 177.717 150.359 181.852 143.721 177.953ZM236.627 122.272C229.014 123.331 220.409 121.751 218.745 121.684C217.821 117.204 215.978 112.964 213.334 109.231C213.293 109.176 213.234 109.139 213.167 109.127C213.101 109.114 213.033 109.127 212.975 109.163C212.918 109.199 212.875 109.256 212.857 109.321C212.841 109.387 212.848 109.456 212.88 109.516C213.855 111.499 217.115 120.054 217.922 122.138C217.67 122.945 225.518 155.398 223.3 159.768C221.317 163.717 209.771 168.692 205.603 170.121C204.779 160.764 203.432 151.461 201.569 142.255C202.14 137.415 201.401 108.642 201.182 98.0037C201.175 97.8803 201.135 97.7608 201.063 97.66C200.992 97.5585 200.894 97.48 200.779 97.4323L193.233 94.2559C193.199 90.262 192.946 86.2727 192.477 82.3064C211.317 85.5669 233.266 96.3399 235.098 96.3567C237.753 96.3567 257.484 81.2308 261.568 80.6257C263.384 80.34 271.182 87.1467 272.089 89.029C264.123 100.155 250.123 114.777 243.636 119.835C241.546 121.233 239.133 122.072 236.627 122.272Z" fill="#190C3B"/>
<path d="M273.283 89.5332C273.703 88.945 273.165 88.1887 272.711 87.6004C273.997 86.2785 275.423 85.1005 276.963 84.0879C279.564 82.7919 281.941 81.0902 284.005 79.0459C284.862 78.1552 286.476 76.3232 285.871 75.2476C285.266 74.172 284.19 74.1048 282.728 74.7266C283.361 74.0617 283.879 73.2944 284.257 72.4577C284.728 71.1468 283.619 70.088 281.215 71.0628C282.089 69.6678 282.291 68.2056 280.812 67.4998C279.619 66.9283 277.871 68.2897 276.862 69.1804C274.882 70.9106 273.023 72.7749 271.299 74.7602C270.241 72.5417 268.56 69.9871 266.459 70.7939C264.358 71.6006 265.989 75.214 267.064 77.1804L263.249 79.819C262.672 79.5076 262.021 79.3625 261.367 79.3988C257.031 80.1383 237.115 95.2979 235.098 95.2979C233.552 95.2979 211.468 84.7097 192.376 81.6509C192.339 81.5363 192.271 81.4349 192.178 81.3576C192.086 81.2803 191.974 81.2304 191.855 81.2139C188.524 80.6456 185.149 80.3926 181.771 80.4577C181.669 80.4647 181.569 80.4937 181.48 80.5429C181.388 80.5924 181.311 80.6609 181.25 80.7434H179.838C179.502 79.382 178.258 76.2392 177.821 75.0291C178.964 74.0375 180.544 73.5333 181.367 71.9367C182.88 68.9788 182.813 63.8359 182.393 60.5418C184.292 59.0965 184.342 56.7772 183.905 54.4074C183.737 53.4495 183.216 51.2814 182.409 50.7436C181.956 50.4411 180.998 50.7436 180.174 51.0461C179.351 49.1302 179.351 50.0041 179.687 49.231C179.844 48.8747 179.935 48.4934 179.956 48.105C180.846 48.3739 182.695 46.5924 182.056 44.2395C181.722 43.3973 181.311 42.5872 180.83 41.8193C181.065 41.2479 181.569 40.5588 179.989 38.458C179.309 37.724 178.425 37.2091 177.451 36.979H176.678C176.121 36.1695 175.302 35.5761 174.359 35.2984C172.936 34.9353 171.426 35.1468 170.157 35.8866C169.821 36.1387 169.552 36.4748 169.216 36.7101C168.456 36.2487 167.585 36.0048 166.695 36.0048C165.806 36.0048 164.935 36.2487 164.174 36.7101C163.729 36.8846 163.324 37.1474 162.984 37.4823C162.644 37.8175 162.373 38.2178 162.191 38.6597C161.368 38.3755 160.494 38.2661 159.625 38.3385C158.758 38.4109 157.914 38.6633 157.149 39.0798C154.246 40.6542 152.074 43.3026 151.099 46.4579C151.072 46.9337 151.072 47.4107 151.099 47.8865H150.914C148.393 47.5167 145.183 53.4999 147.754 58.1553C148.057 58.7099 148.443 59.2309 148.813 59.836C149.889 61.5166 149.468 62.0208 151.872 64.0712C152.578 64.6763 152.695 64.6258 153.132 64.9956C153.569 65.3653 153.401 65.1805 153.653 66.1216C153.791 66.6759 154.037 67.1979 154.378 67.6565C154.718 68.1152 155.146 68.5017 155.637 68.7939C155.816 70.4379 156.516 71.981 157.636 73.1972C157.991 73.5945 158.405 73.9342 158.863 74.2056C158.987 74.2753 159.125 74.3156 159.267 74.3232C159.771 77.4493 160.393 81.5165 160.662 83.2475L159.166 84.0543C157.209 84.8417 155.306 85.7569 153.468 86.7937C153.324 86.8937 153.222 87.0431 153.183 87.2139C151.401 88.1551 149.721 89.0458 148.763 89.6172C135.418 97.5331 97.5193 149.718 97.1328 152.104C97.0903 152.241 97.0903 152.387 97.1328 152.524C97.6761 153.391 98.338 154.177 99.0991 154.86C98.8648 155.289 98.5827 155.688 98.2588 156.054C94.8975 158.255 89.8558 161.533 87.15 164.457C86.9599 164.627 86.8175 164.842 86.7368 165.083C86.6559 165.324 86.639 165.582 86.6882 165.831C86.7374 166.08 86.8508 166.313 87.0173 166.506C87.1839 166.698 87.3975 166.844 87.637 166.928C88.1412 167.096 88.2256 167.045 91.5029 165.247C90.602 166.037 89.8653 166.996 89.3348 168.07C89.1163 168.995 89.9567 169.533 91.0155 169.364C91.611 169.208 92.1782 168.958 92.6961 168.625C92.3927 169.093 92.2317 169.639 92.2317 170.197C92.2317 170.754 92.3927 171.3 92.6961 171.768C94.3768 173.885 98.7801 167.213 101.099 165.566C102.041 166.759 103.318 169.549 105.351 168.81C107.116 168.154 105.183 164.272 105.351 163.146C106.035 162.489 106.765 161.883 107.536 161.331C108.833 162.292 110.315 162.974 111.889 163.331C114.662 163.331 143.603 134.121 145.805 131.785C145.015 139.213 141.032 171.096 141.872 177.297C142.258 180.104 148.998 180.507 151.838 180.659C150.981 200.826 150.41 231.381 150.258 231.7C145.805 241.297 144.595 243.919 143.099 246.826C140.376 252.036 128.914 271.263 127.62 275.633C127.435 276.322 127.418 276.591 128.141 277.868C125.975 280.145 123.965 282.565 122.124 285.111C121.2 286.792 125.166 302.456 127.973 308.002C128.612 309.246 129.654 311.162 131.048 311.113C135.25 310.96 135.233 295.868 135.116 291.649C135.115 291.519 135.067 291.394 134.981 291.296C135.743 290.159 136.574 289.071 137.469 288.036C138.003 288.404 138.565 288.729 139.149 289.011C139.721 289.263 140.359 288.826 140.83 288.439C146.427 284.036 176.611 246.423 183.082 228.675C186.023 220.574 189.939 209.381 191.048 201.448C191.726 196.433 191.789 191.353 191.233 186.322C191.233 186.251 191.261 186.182 191.311 186.132C191.362 186.082 191.43 186.053 191.502 186.053C191.573 186.053 191.642 186.082 191.692 186.132C191.743 186.182 191.771 186.251 191.771 186.322C192.613 191.381 192.776 196.531 192.258 201.633C191.014 212.641 182.325 235.582 177.687 244.019C181.687 243.28 189.821 241.666 193.754 240.49C206.863 236.507 218.964 224.625 220.023 211.28C220.366 204.993 220.366 198.694 220.023 192.406C219.909 183.727 218.782 175.091 216.661 166.675C220.224 164.743 223.485 162.474 224.544 160.39C226.812 155.936 220.812 130.306 219.502 123.113C226.678 123.903 238.896 125.331 244.594 120.877C251.115 115.634 265.199 100.878 273.283 89.5332ZM134.208 290.725C131.183 288.893 126.948 284.54 126.309 281.128C126.998 280.254 127.721 279.448 128.393 278.54C130.671 282.016 133.511 285.089 136.796 287.632C135.873 288.612 135.009 289.644 134.208 290.725ZM267.82 77.651C267.907 77.5956 267.971 77.5089 267.994 77.4089C268.019 77.3087 268.005 77.203 267.955 77.1131C267.367 76.0207 265.602 72.172 266.829 71.735C267.535 71.4661 268.157 71.9031 268.678 72.4913C269.473 73.5006 270.092 74.6371 270.51 75.8526C270.54 75.9514 270.598 76.04 270.676 76.1087C270.753 76.1775 270.848 76.2236 270.949 76.2429C271.052 76.2618 271.157 76.2526 271.255 76.2166C271.351 76.1805 271.437 76.1185 271.501 76.0375C273.182 74.172 277.115 69.9199 279.333 68.7771C281.014 67.9031 281.417 69.5166 277.299 73.2812C276.354 74.0024 275.445 74.7709 274.577 75.5837C274.529 75.6497 274.502 75.7292 274.502 75.8108C274.502 75.8921 274.529 75.9715 274.577 76.0375C274.577 76.4745 274.93 76.9619 275.535 76.5081C276.996 75.2256 278.54 74.0412 280.157 72.9619C280.982 72.3758 281.941 72.0058 282.946 71.8863C282.442 73.4325 277.753 77.6341 277.35 78.1047C277.222 78.2196 277.144 78.3797 277.133 78.5512C277.123 78.7226 277.179 78.8916 277.291 79.0215C277.405 79.1513 277.563 79.232 277.734 79.246C277.906 79.2601 278.075 79.2063 278.207 79.0963C280.072 77.8862 283.333 75.0627 284.459 75.4829C285.585 75.9031 282.241 79.0291 281.4 79.7686C276.577 83.9534 277.82 81.2644 272.241 86.945C269.812 84.2844 267.024 81.9764 263.955 80.0879L267.82 77.651ZM194.796 158.037C194.51 155.718 194.157 153.213 193.72 150.608L194.443 149.65C197.804 145.331 198.813 138.457 198.493 133.062C200.292 140.945 201.72 148.692 202.813 156.39L194.796 158.037ZM169.804 100.491C165.384 97.1298 158.275 91.3315 154.141 87.3652L160.863 84.0038C167.037 89.77 172.321 96.4193 176.544 103.735C183.002 115.597 187.792 128.294 190.779 141.466L166.813 107.567L169.939 101.079C169.981 100.979 169.989 100.869 169.965 100.764C169.942 100.658 169.886 100.563 169.804 100.491ZM181.166 81.4324C181.267 81.6173 182.426 84.0879 184.191 88.4072C184.191 88.592 183.872 92.7937 183.72 94.2727C181.575 93.4226 179.552 92.2922 177.704 90.9113C178.073 89.4492 179.737 82.8106 179.855 81.3148L181.166 81.4324ZM175.199 99.4827C175.317 99.1802 175.435 98.7768 175.569 98.3062L176.695 98.8945C177.334 99.3146 177.082 98.0373 177.653 101.735C177.653 102.357 177.821 103.046 177.855 103.802C177.082 102.407 176.124 100.911 175.216 99.4827H175.199ZM174.258 98.071C171.083 93.5674 167.468 89.3902 163.468 85.6005L176.124 91.0962C175.636 92.2559 174.93 95.8021 174.275 98.071H174.258ZM187.182 107.92C185.502 103.331 184.208 98.2054 183.569 96.8609C183.607 96.4416 183.607 96.0196 183.569 95.6004C183.813 95.6908 184.066 95.7474 184.325 95.7685C184.488 95.7703 184.645 95.7134 184.768 95.6083C184.892 95.5035 184.974 95.3575 184.998 95.197C185.132 94.6424 185.351 91.8357 185.384 91.2139C190.274 103.558 194.355 116.206 197.603 129.079C188.107 108.878 189.569 114.726 187.199 107.92H187.182ZM201.082 140.003C197.25 121.634 190.51 98.7264 182.846 81.7518C185.662 81.7533 188.471 81.9782 191.25 82.424C192.678 95.197 191.485 94.7601 192.443 95.2643C193.401 95.7684 199.166 98.0878 200.023 98.4407C199.939 99.7348 201.149 136.743 201.098 140.003H201.082ZM181.737 51.8192C182.614 53.7312 182.922 55.8543 182.628 57.9368C182.491 58.467 182.21 58.9486 181.816 59.3281C181.421 59.7079 180.929 59.9707 180.394 60.0875C179.861 60.2042 179.303 60.1703 178.786 59.9894C178.269 59.8085 177.814 59.4876 177.468 59.0629C176.666 57.3736 176.064 55.597 175.67 53.7688C176.124 53.1806 180.964 52.0041 181.737 51.8192ZM158.611 68.6258C157.998 68.3462 157.369 68.0996 156.729 67.8863C156.299 67.7097 155.917 67.4371 155.609 67.0894C155.3 66.7416 155.076 66.3282 154.953 65.8802C154.83 65.4326 154.81 64.9626 154.897 64.5061C154.984 64.0498 155.173 63.6193 155.452 63.2477C156.51 62.357 157.468 62.4074 158.342 63.7351C158.897 64.7603 158.88 64.8443 159.132 64.9452C159.205 64.977 159.284 64.9931 159.362 64.9922C159.441 64.9913 159.519 64.9736 159.59 64.9403C159.662 64.907 159.726 64.8584 159.777 64.7985C159.828 64.7386 159.866 64.6683 159.889 64.5922C160.138 63.5404 160.177 62.4495 160.006 61.3822C159.805 60.2225 159.771 55.0797 159.805 54.9116C160.296 55.1705 160.847 55.2924 161.401 55.2646C164.443 55.1469 165.048 53.5839 166.258 52.3066C167.653 52.4411 167.939 53.1133 169.519 52.3066C170.258 51.8858 170.938 51.3658 171.536 50.7604C172.019 50.9581 172.485 51.1943 172.93 51.4663C173.938 51.9506 175.073 52.0994 176.171 51.8907C177.269 51.682 178.272 51.1268 179.031 50.3066C179.216 50.6596 179.384 51.0125 179.535 51.3823C177.991 51.8617 176.537 52.5942 175.233 53.5503C174.947 53.9032 175.367 55.8192 175.468 56.273C174.061 56.4502 172.698 56.889 171.452 57.5671C171.199 56.6931 170.645 55.0629 169.771 54.6091C169.508 54.5288 169.228 54.5288 168.964 54.6091C167.452 54.8444 162.023 56.4746 161.368 57.3654C160.796 57.9872 162.426 62.7939 162.931 63.5838C164.863 66.5754 170.527 65.7015 171.586 62.2057C171.848 61.0326 171.848 59.8158 171.586 58.6427C172.073 58.6427 173.536 58.1217 173.704 58.0713C174.863 60.6763 175.199 60.8276 176.544 63.6343C176.359 63.7855 176.057 64.0376 175.804 64.2057C174.611 64.9956 174.359 64.8611 174.426 65.1973C174.446 65.2639 174.489 65.3213 174.548 65.3583C174.607 65.3956 174.677 65.4099 174.746 65.3989C175.451 65.2981 176.141 65.1062 176.796 64.8275C177.188 64.6812 177.512 64.3933 177.704 64.0208C178.174 62.962 175.569 58.9788 174.544 57.7856C174.746 57.7856 175.216 57.4494 175.569 57.2646C176.04 59.1469 176.359 60.6259 178.174 61.3654C178.699 61.5634 179.258 61.6535 179.818 61.6306C180.379 61.6074 180.928 61.4714 181.435 61.2309C181.704 64.1889 181.653 68.9956 180.241 71.6174C179.519 72.9787 177.737 73.4997 176.594 74.6258C176.258 74.9451 176.477 75.3989 176.594 75.8863C178.46 81.0795 178.493 81.0627 178.393 81.735C177.898 84.5252 177.208 87.2771 176.325 89.9702C175.905 89.7853 171.183 87.2811 161.939 83.6845C161.653 81.7854 160.124 71.651 159.636 69.7855C159.67 69.13 159.586 68.9788 158.611 68.5418V68.6258ZM170.376 61.7687C169.838 63.6006 167.3 64.3906 165.485 63.8864C163.67 63.3822 163.552 62.4578 162.695 60.2729C162.293 59.4384 162.016 58.5492 161.872 57.6343C162.426 57.0293 168.494 55.7856 169.25 55.6679C170.31 57.4827 170.709 59.6092 170.376 61.6847V61.7687ZM104.612 162.675C103.973 163.297 104.83 165.331 104.965 167.096C104.965 167.247 104.965 167.902 104.864 167.953C103.939 168.255 103.082 166.86 102.561 166.02C102.04 165.18 101.519 164.037 100.696 164.339C99.0151 165.129 95.116 170.306 93.5866 170.843C92.8135 169.365 97.2339 165.146 97.3852 164.911C97.45 164.803 97.4839 164.678 97.4833 164.554C97.4827 164.428 97.4475 164.303 97.3818 164.197C97.3158 164.089 97.2217 164.002 97.1099 163.943C96.9977 163.886 96.8721 163.86 96.7465 163.869C96.444 163.869 96.242 164.138 95.7714 164.558C94.3401 165.954 92.7019 167.122 90.9143 168.02C92.5351 166.16 94.2695 164.404 96.1076 162.76C96.1986 162.666 96.2625 162.55 96.2927 162.423C96.2927 162.423 95.9398 161.533 95.2507 161.886C94.276 162.423 89.5362 165.163 88.0407 165.869C87.839 165.734 87.9567 165.533 88.0407 165.331C90.4101 162.423 95.6205 158.894 98.8134 156.659C99.1884 156.272 99.5004 155.831 99.7378 155.348C101.95 157.405 104.309 159.299 106.797 161.012C106.03 161.515 105.3 162.07 104.612 162.675ZM143.721 177.953C143.351 177.717 143.082 177.499 143.032 177.196C142.107 170.339 147.25 131.482 147.166 129.953C147.166 129.863 147.148 129.775 147.113 129.692C147.079 129.609 147.027 129.534 146.963 129.472C146.899 129.409 146.823 129.36 146.739 129.327C146.656 129.294 146.567 129.279 146.477 129.281C145.62 129.281 147.132 129.281 125.721 149.785C124.309 151.113 113.519 161.432 111.721 162.121C109.25 161.936 99.9563 154.524 98.4437 152.188C101.368 146.272 136.83 97.6004 149.099 90.1551C150.04 89.5836 151.653 88.6929 153.418 87.7517C154.029 88.3274 154.686 88.8499 155.384 89.3147C159.284 93.0122 164.712 97.6172 168.83 101.079L165.62 107.449C165.571 107.533 165.545 107.629 165.545 107.726C165.545 107.824 165.571 107.919 165.62 108.004C191.687 145.398 191.3 144.978 191.468 144.978C193.139 153.619 194.178 162.37 194.577 171.163C194.577 173.533 194.577 173.331 194.678 173.163C194.779 172.995 194.678 173.28 194.678 173.28C190.611 177.717 150.359 181.852 143.721 177.953ZM236.627 122.272C229.014 123.331 220.409 121.751 218.745 121.684C217.821 117.204 215.978 112.964 213.334 109.231C213.293 109.176 213.234 109.139 213.167 109.127C213.101 109.114 213.033 109.127 212.975 109.163C212.918 109.199 212.875 109.256 212.857 109.321C212.841 109.387 212.848 109.456 212.88 109.516C213.855 111.499 217.115 120.054 217.922 122.138C217.67 122.945 225.518 155.398 223.3 159.768C221.317 163.717 209.771 168.692 205.603 170.121C204.779 160.764 203.432 151.461 201.569 142.255C202.14 137.415 201.401 108.642 201.182 98.0037C201.175 97.8803 201.135 97.7608 201.063 97.66C200.992 97.5585 200.894 97.48 200.779 97.4323L193.233 94.2559C193.199 90.262 192.946 86.2727 192.477 82.3064C211.317 85.5669 233.266 96.3399 235.098 96.3567C237.753 96.3567 257.484 81.2308 261.568 80.6257C263.384 80.34 271.182 87.1467 272.089 89.029C264.123 100.155 250.123 114.777 243.636 119.835C241.546 121.233 239.133 122.072 236.627 122.272Z" stroke="#190C3B" stroke-width="0.8" mask="url(#path-3-outside-1_9_1349)"/>
<path d="M167.582 58.3587C167.561 58.2484 167.519 58.1433 167.457 58.0495C167.396 57.9553 167.316 57.8744 167.224 57.8111C167.13 57.7482 167.026 57.7038 166.915 57.6809C166.806 57.658 166.693 57.6571 166.582 57.6782C166.471 57.699 166.367 57.7414 166.273 57.8032C166.179 57.8649 166.098 57.944 166.034 58.0369C165.971 58.1298 165.926 58.2343 165.904 58.3443C165.882 58.4543 165.88 58.5677 165.901 58.678C166.238 60.3587 166.305 60.7452 167.044 60.7452C167.184 60.7455 167.321 60.7113 167.445 60.6453C167.568 60.579 167.673 60.4834 167.749 60.3663C167.826 60.2496 167.872 60.1154 167.885 59.9761C167.896 59.8368 167.873 59.6968 167.817 59.5688C167.767 59.2999 167.616 58.5099 167.582 58.3587ZM172.725 69.4847C173.817 69.804 174.859 69.283 174.826 69.0141C174.792 68.7452 174.826 68.8796 173.347 68.325C172.355 67.9553 171.263 66.6443 170.876 66.846C170.49 67.0477 171.078 68.1233 171.212 68.325C171.572 68.8705 172.105 69.279 172.725 69.4847Z" fill="#190C3B"/>
<path d="M167.457 58.0495C167.519 58.1433 167.561 58.2484 167.582 58.3587C167.616 58.5099 167.767 59.2999 167.817 59.5688C167.873 59.6968 167.896 59.8368 167.885 59.9761C167.872 60.1154 167.826 60.2496 167.749 60.3663C167.673 60.4834 167.568 60.579 167.445 60.6453C167.321 60.7113 167.184 60.7455 167.044 60.7452C166.305 60.7452 166.238 60.3587 165.901 58.678C165.88 58.5677 165.882 58.4543 165.904 58.3443C165.926 58.2343 165.971 58.1298 166.034 58.0369C166.098 57.944 166.179 57.8649 166.273 57.8032C166.367 57.7414 166.471 57.699 166.582 57.6782C166.693 57.6571 166.806 57.658 166.915 57.6809C167.026 57.7038 167.13 57.7482 167.224 57.8111C167.316 57.8744 167.396 57.9553 167.457 58.0495Z" fill="#190C3B"/>
<path d="M179.294 54.5536C179.273 54.4433 179.231 54.3382 179.17 54.2444C179.108 54.1503 179.028 54.0693 178.936 54.006C178.842 53.9431 178.738 53.8988 178.627 53.8759C178.518 53.853 178.405 53.852 178.294 53.8731C178.183 53.8939 178.079 53.9364 177.985 53.9981C177.891 54.0598 177.81 54.139 177.747 54.2319C177.684 54.3248 177.639 54.4293 177.616 54.5393C177.594 54.6493 177.592 54.7627 177.614 54.873C177.95 56.5536 178.017 56.9402 178.756 56.9402C178.896 56.9405 179.034 56.9063 179.157 56.8403C179.28 56.7739 179.385 56.6783 179.461 56.5613C179.538 56.4445 179.584 56.3104 179.597 56.171C179.608 56.0317 179.585 55.8917 179.53 55.7637C179.479 55.4948 179.328 54.7049 179.294 54.5536Z" fill="#190C3B"/>
<path d="M179.17 54.2444C179.231 54.3382 179.273 54.4433 179.294 54.5536C179.328 54.7049 179.479 55.4948 179.53 55.7637C179.585 55.8917 179.608 56.0317 179.597 56.171C179.584 56.3104 179.538 56.4445 179.461 56.5613C179.385 56.6783 179.28 56.7739 179.157 56.8403C179.034 56.9063 178.896 56.9405 178.756 56.9402C178.017 56.9402 177.95 56.5536 177.614 54.873C177.592 54.7627 177.594 54.6493 177.616 54.5393C177.639 54.4293 177.684 54.3248 177.747 54.2319C177.81 54.139 177.891 54.0598 177.985 53.9981C178.079 53.9364 178.183 53.8939 178.294 53.8731C178.405 53.852 178.518 53.853 178.627 53.8759C178.738 53.8988 178.842 53.9431 178.936 54.006C179.028 54.0693 179.108 54.1503 179.17 54.2444Z" fill="#190C3B"/>
<path d="M10.4572 54.9443L10.4357 54.9595L10.7327 56.3855C11.7851 61.4383 15.8466 64.1139 21.4097 65.646C24.221 66.4202 27.3711 66.9656 29.8926 66.6559C31.1442 66.5022 32.1676 66.1461 32.9176 65.5713C33.6446 65.0141 34.1819 64.2014 34.3974 62.9799L34.3977 62.9782C34.9222 60.0359 33.2858 57.634 30.3799 55.7931C27.4749 53.9528 23.5167 52.8407 20.0585 52.5315L20.0233 52.5284L19.9885 52.5228C17.2741 52.0854 14.4938 52.6142 12.114 54.0226L10.5356 54.9568L10.6054 53.124C10.7662 48.9033 12.3669 44.8828 15.1149 41.7474C13.6057 43.3885 12.4164 45.311 11.6133 47.4121C10.7624 49.6385 10.363 52.0185 10.4399 54.4079L10.4572 54.9443Z" stroke="#FFD1A9" stroke-width="2"/>
</svg>
