<svg width="140" height="28" viewBox="0 0 140 28" fill="none" xmlns="http://www.w3.org/2000/svg">
<path d="M60.6699 23.7077V0H62.1361V23.7077H60.6699ZM61.6369 19.2781L61.5122 17.8119L68.9676 11.2611L69.8722 12.041L61.6369 19.2781ZM64.9435 15.7843L70.6209 23.7077H68.9052L63.9141 16.5954L64.9435 15.7843Z" fill="#F98E2D"/>
<path d="M79.6981 23.9577C78.5914 23.9728 77.5 23.6986 76.5319 23.1622C75.5916 22.6405 74.8142 21.8685 74.2859 20.9318C73.718 19.9127 73.4326 18.7604 73.4592 17.594C73.4245 16.3763 73.7267 15.1727 74.3327 14.1159C74.8949 13.1661 75.7177 12.3975 76.7034 11.9011C77.7596 11.3787 78.9255 11.1166 80.1036 11.1368C81.2019 11.1418 82.2731 11.4789 83.1763 12.1039C84.0932 12.6918 84.8151 13.5386 85.2507 14.537L85.0323 14.9737L85.2195 11.5112H86.5297V23.7081H85.0635V19.9336L85.3755 20.4951C85.2074 20.9548 84.9533 21.3783 84.6268 21.7429C83.8239 22.6416 82.7954 23.3093 81.6477 23.6769C81.0164 23.8712 80.3586 23.966 79.6981 23.9577ZM80.01 22.7099C80.8713 22.7218 81.7225 22.5237 82.49 22.1328C83.2298 21.7535 83.857 21.1864 84.3086 20.4883C84.7603 19.7903 85.0206 18.9859 85.0635 18.1555V16.4087C84.9028 15.6545 84.5661 14.9491 84.0809 14.3498C83.5928 13.7485 82.9811 13.2591 82.2872 12.9149C81.5304 12.5484 80.6972 12.3672 79.8565 12.3862C79.0158 12.4052 78.1917 12.6238 77.4521 13.0241C76.6875 13.4442 76.0514 14.0642 75.6116 14.8178C75.1394 15.6428 74.9021 16.5813 74.9254 17.5317C74.9135 18.4461 75.1507 19.3465 75.6116 20.1364C76.0648 20.9104 76.7093 21.5549 77.4833 22.008C78.2451 22.4697 79.1193 22.7125 80.01 22.7099Z" fill="#F98E2D"/>
<path d="M98.9453 11.5107L103.565 21.8984L103.222 21.9296L107.68 11.5107H109.18L103.44 24.4564L99.5099 15.7844L95.9226 24.4564L90.1797 11.5107H91.6458L96.3562 22.1168L95.8259 21.9608L98.9453 14.4118L97.6039 11.5107H98.9453Z" fill="#F98E2D"/>
<path d="M117.662 23.9577C116.551 23.975 115.455 23.7007 114.483 23.1622C113.543 22.6405 112.765 21.8685 112.237 20.9318C111.669 19.9127 111.384 18.7604 111.41 17.594C111.38 16.3749 111.688 15.1711 112.299 14.1159C112.861 13.1661 113.684 12.3975 114.67 11.9011C115.726 11.3787 116.892 11.1166 118.07 11.1368C119.169 11.1418 120.24 11.4789 121.143 12.1039C122.06 12.6918 122.782 13.5386 123.217 14.537L122.999 14.9737L123.186 11.5112H124.496V23.7081H123.03V19.9336L123.342 20.4951C123.174 20.9548 122.92 21.3783 122.593 21.7429C121.79 22.6416 120.762 23.3093 119.614 23.6769C118.982 23.8716 118.323 23.9663 117.662 23.9577ZM117.973 22.7099C118.835 22.7218 119.686 22.5237 120.453 22.1328C121.193 21.7535 121.82 21.1864 122.272 20.4884C122.724 19.7903 122.984 18.9859 123.027 18.1555V16.4087C122.866 15.6545 122.53 14.9491 122.044 14.3498C121.556 13.7485 120.945 13.2591 120.251 12.9149C119.494 12.5484 118.661 12.3672 117.82 12.3862C116.979 12.4052 116.155 12.6238 115.416 13.0241C114.651 13.4442 114.015 14.0642 113.575 14.8178C113.103 15.6428 112.866 16.5813 112.889 17.5317C112.877 18.4461 113.114 19.3465 113.575 20.1364C114.028 20.9104 114.673 21.5549 115.447 22.008C116.209 22.4697 117.083 22.7125 117.973 22.7099Z" fill="#F98E2D"/>
<path d="M130.046 23.7077V0H131.512V23.7077H130.046ZM131.016 19.2781L130.891 17.8119L138.347 11.2611L139.251 12.041L131.016 19.2781ZM134.323 15.7843L140 23.7077H138.284L133.293 16.5954L134.323 15.7843Z" fill="#F98E2D"/>
<path d="M46.0553 2.09961V9.49578C43.9287 7.55331 41.29 6.26092 38.4517 5.77165C35.6134 5.28238 32.6943 5.61672 30.0401 6.73508L31.5655 10.3474C33.5075 9.53004 35.6412 9.27937 37.7197 9.62441C39.7982 9.96945 41.7365 10.8961 43.3102 12.297L32.7883 21.908L24.7745 10.887L17.5374 21.7208L6.51025 12.4624C8.08187 10.9986 10.043 10.0203 12.1577 9.64506C14.2723 9.26983 16.4503 9.51373 18.4296 10.3474L19.9644 6.73508C17.3057 5.61535 14.3817 5.28175 11.5391 5.77384C8.6966 6.26594 6.05487 7.56308 3.92736 9.51137V2.09961H0V22.6286H3.92112V15.4102L18.3703 27.5386L24.9118 17.7498L32.1925 27.7632L46.0553 15.1014V22.6286H49.9764V2.09961H46.0553Z" fill="#08172E"/>
</svg>
