<svg width="30" height="30" viewBox="0 0 30 30" fill="none" xmlns="http://www.w3.org/2000/svg">
<path fill-rule="evenodd" clip-rule="evenodd" d="M1.44074 30C7.20579 27.2913 14.3363 23.4105 20.5083 18.9347C23.0355 17.102 25.4299 15.1496 27.5133 13.1159C26.9057 14.4772 26.225 15.8787 25.4705 17.3005C23.1721 21.6309 20.2378 26.0521 16.6983 30H1.44074ZM-1.90735e-06 26.7517C5.59347 24.1194 12.4915 20.3599 18.4226 16.0587C22.1585 13.3495 25.4455 10.472 27.782 7.57717C28.6882 6.45448 29.4302 5.3558 30 4.28649V3.35298C24.372 5.9894 17.3811 9.78674 11.38 14.1387C7.64417 16.8478 4.35715 19.7254 2.0206 22.6202C1.21562 23.6175 0.540258 24.5958 -1.90735e-06 25.5515V26.7517ZM30 16.2037C29.5635 17.1184 29.0994 18.0409 28.6085 18.966C26.6526 22.6511 24.2354 26.4417 21.361 30H30V16.2037ZM9.29435 11.2627C15.6178 6.67695 22.9475 2.71585 28.784 -1.90735e-06H13.2822C9.66296 3.99763 6.66889 8.49418 4.33218 12.8969C3.57759 14.3187 2.89695 15.7202 2.2893 17.0814C4.37278 15.0477 6.7671 13.0954 9.29435 11.2627ZM1.19414 11.2314C0.776484 12.0183 0.378319 12.8034 -1.90735e-06 13.5834V-1.90735e-06H8.60174C5.65691 3.61533 3.1862 7.47805 1.19414 11.2314Z" fill="#422B8C"/>
</svg>
