<svg width="14" height="14" viewBox="0 0 14 14" fill="none" xmlns="http://www.w3.org/2000/svg">
<circle cx="7" cy="7" r="7" fill="#EDFAFE"/>
<path d="M14 7C14 10.866 10.866 14 7 14C3.13401 14 0 10.866 0 7C0 3.13401 3.13401 0 7 0C10.866 0 14 3.13401 14 7ZM0.941598 7C0.941598 10.346 3.65404 13.0584 7 13.0584C10.346 13.0584 13.0584 10.346 13.0584 7C13.0584 3.65404 10.346 0.941598 7 0.941598C3.65404 0.941598 0.941598 3.65404 0.941598 7Z" fill="#71DBFD"/>
<mask id="mask0_325_2434" style="mask-type:alpha" maskUnits="userSpaceOnUse" x="0" y="0" width="14" height="14">
<path fill-rule="evenodd" clip-rule="evenodd" d="M1.51602 13.0664C3.84766 11.9709 6.73156 10.4013 9.22778 8.59111C10.2499 7.84987 11.2183 7.06025 12.0609 6.23774C11.8152 6.78829 11.5399 7.35513 11.2347 7.93015C10.3051 9.68156 9.1184 11.4697 7.68685 13.0664H1.51602ZM0.933317 11.7527C3.19557 10.688 5.98545 9.16752 8.38425 7.42793C9.89518 6.33222 11.2246 5.1684 12.1696 3.99762C12.5361 3.54355 12.8362 3.0992 13.0667 2.66672V2.28917C10.7904 3.35545 7.96299 4.89127 5.53589 6.65137C4.02496 7.74708 2.69554 8.9109 1.75054 10.0817C1.42497 10.485 1.15182 10.8807 0.933317 11.2672V11.7527ZM13.0667 7.48657C12.8901 7.85652 12.7024 8.22963 12.5039 8.60375C11.7128 10.0942 10.7352 11.6273 9.57265 13.0664H13.0667V7.48657ZM4.69237 5.48819C7.24986 3.63353 10.2143 2.03148 12.5748 0.933073H6.30521C4.84145 2.54989 3.63051 4.3685 2.68544 6.14915C2.38025 6.72417 2.10497 7.29101 1.85921 7.84157C2.70186 7.01905 3.67023 6.22944 4.69237 5.48819ZM1.41628 5.47555C1.24736 5.79381 1.08633 6.11134 0.933317 6.42682V0.933073H4.41224C3.22122 2.39527 2.22196 3.95753 1.41628 5.47555Z" fill="#71DBFD"/>
</mask>
<g mask="url(#mask0_325_2434)">
<circle cx="6.99977" cy="7.00002" r="6.06667" fill="#71DBFD"/>
</g>
</svg>
