<svg width="50" height="26" viewBox="0 0 50 26" fill="none" xmlns="http://www.w3.org/2000/svg">
<path d="M46.0553 0V7.39617C43.9287 5.4537 41.29 4.16131 38.4517 3.67204C35.6134 3.18277 32.6943 3.51711 30.0401 4.63547L31.5655 8.24777C33.5075 7.43043 35.6412 7.17976 37.7197 7.5248C39.7982 7.86984 41.7365 8.79646 43.3102 10.1974L32.7883 19.8084L24.7745 8.78743L17.5374 19.6212L6.51025 10.3627C8.08187 8.89902 10.043 7.92067 12.1577 7.54545C14.2723 7.17022 16.4503 7.41412 18.4296 8.24777L19.9644 4.63547C17.3057 3.51574 14.3817 3.18214 11.5391 3.67423C8.6966 4.16633 6.05487 5.46347 3.92736 7.41177V0H0V20.529H3.92112V13.3106L18.3703 25.4389L24.9118 15.6502L32.1925 25.6635L46.0553 13.0018V20.529H49.9764V0H46.0553Z" fill="#422B8C"/>
</svg>
